<?xml version="1.0" encoding="UTF-8" standalone="no"?>
<!-- Created with Inkscape (http://www.inkscape.org/) -->

<svg
   width="95.803322mm"
   height="21.271683mm"
   viewBox="0 0 95.803322 21.271683"
   version="1.1"
   id="svg1"
   inkscape:version="1.4 (86a8ad7, 2024-10-11)"
   sodipodi:docname="logo.svg"
   xml:space="preserve"
   xmlns:inkscape="http://www.inkscape.org/namespaces/inkscape"
   xmlns:sodipodi="http://sodipodi.sourceforge.net/DTD/sodipodi-0.dtd"
   xmlns:xlink="http://www.w3.org/1999/xlink"
   xmlns="http://www.w3.org/2000/svg"
   xmlns:svg="http://www.w3.org/2000/svg"><sodipodi:namedview
     id="namedview1"
     pagecolor="#ffffff"
     bordercolor="#666666"
     borderopacity="1.0"
     inkscape:showpageshadow="2"
     inkscape:pageopacity="0.0"
     inkscape:pagecheckerboard="0"
     inkscape:deskcolor="#d1d1d1"
     inkscape:document-units="mm"
     inkscape:zoom="1.4142136"
     inkscape:cx="430.27448"
     inkscape:cy="736.45171"
     inkscape:window-width="1920"
     inkscape:window-height="1017"
     inkscape:window-x="1912"
     inkscape:window-y="-8"
     inkscape:window-maximized="1"
     inkscape:current-layer="layer1"><inkscape:page
       x="1.1205539e-22"
       y="0"
       width="95.803322"
       height="21.271683"
       id="page2"
       margin="0"
       bleed="0" /></sodipodi:namedview><defs
     id="defs1"><linearGradient
       id="linearGradient81"
       inkscape:collect="always"><stop
         style="stop-color:#000000;stop-opacity:1;"
         offset="0"
         id="stop81" /><stop
         style="stop-color:#ff0000;stop-opacity:0;"
         offset="1"
         id="stop82" /></linearGradient><linearGradient
       inkscape:collect="always"
       xlink:href="#linearGradient81"
       id="linearGradient82"
       x1="123.86149"
       y1="179.78114"
       x2="123.86149"
       y2="210.16898"
       gradientUnits="userSpaceOnUse" /></defs><g
     inkscape:groupmode="layer"
     id="layer7"
     inkscape:label="Shadow"
     style="display:inline;opacity:0.263228;fill:#ffffff;stroke:#ffffff"
     transform="translate(-62.263289,-183.26733)"><path
       style="font-size:14.266px;line-height:1.25;font-family:'Delta Block';-inkscape-font-specification:'Delta Block';text-align:center;text-anchor:middle;display:inline;opacity:1;fill:#ff00ff;stroke:#ff00ff;stroke-width:0.5;stroke-dasharray:none"
       d="m 67.9767,196.58302 h 2.7197 l 1.6499,-7.103 h -2.6131 z m -0.9331,3.773 -0.9728,3.933 h -2.8354 l 3.8847,-14.809 3.4407,-3.346 h 2.5629 l 1.8358,3.346 -3.2179,14.809 h -2.8354 l 0.9137,-3.933 z m 8.951,3.933 h -2.8353 l 3.8088,-18.155 h 5.1258 l 2.0115,3.346 -0.8688,5.273 -2.7913,3.074 1.2201,6.462 H 78.83 l -1.011,-5.839 h -0.6869 z m 1.8575,-9.536 h 2.6922 l 0.948,-5.273 h -2.6131 z m 11.4023,5.603 0.4801,-3.773 h 2.7197 l -0.4235,3.773 -3.2768,3.933 h -2.8354 l -2.2168,-3.933 1.7103,-10.876 3.0891,-3.346 h 2.563 l 2.1873,3.346 -0.3906,3.48 h -2.6654 l 0.4428,-3.48 h -2.6131 l -1.5471,10.876 z m 6.5879,3.933 H 93.007 l 1.9014,-18.155 h 2.5629 l -0.6125,6.826 h 2.6654 l 0.5098,-6.826 h 2.563 l -1.084,18.155 h -2.8353 l 0.5758,-7.706 h -2.7197 z m 7.0887,0 0.205,-3.933 h 1.388 l 0.486,-10.876 h -1.306 l 0.175,-3.346 h 5.125 l -0.074,3.346 h -1.306 l -0.323,10.876 h 1.388 l -0.087,3.933 z m 12.759,0 h -2.835 l -0.005,-14.809 h -2.613 l 0.049,-3.346 h 7.689 l 0.101,3.346 h -2.613 z m 12.433,-3.933 0.326,3.933 h -8.506 l -0.687,-18.155 h 7.689 l 0.277,3.346 h -5.226 l 0.184,3.48 h 3.998 l 0.273,3.623 h -4.08 l 0.2,3.773 z m 6.941,0 -0.454,-3.773 h 2.72 l 0.511,3.773 -2.303,3.933 h -2.836 l -3.191,-3.933 -0.982,-10.876 2.26,-3.346 h 2.563 l 3.016,3.346 0.471,3.48 h -2.665 l -0.419,-3.48 h -2.613 l 1.146,10.876 z m 10.398,3.933 h -2.836 l -2.338,-14.809 h -2.613 l -0.479,-3.346 h 7.689 l 0.629,3.346 h -2.613 z m 9.198,-14.809 0.414,1.723 h -2.639 l -0.388,-1.723 h -2.613 l 0.732,3.48 h 2.665 l 3.537,3.623 0.907,3.773 -1.89,3.933 h -2.835 l -3.604,-3.933 -0.373,-1.906 h 2.748 l 0.401,1.906 h 2.777 l -0.851,-3.773 h -2.72 l -3.427,-3.623 -0.681,-3.48 1.909,-3.346 h 2.563 z"
       id="path68"
       aria-label="ARCHITECTS"
       inkscape:export-filename="..\..\images\logo\architects.svg"
       inkscape:export-xdpi="127"
       inkscape:export-ydpi="127" /></g><g
     inkscape:label="Outline"
     inkscape:groupmode="layer"
     id="layer1"
     style="display:inline;stroke-width:1.5;stroke-dasharray:none"
     transform="translate(-62.263289,-183.26733)"><path
       style="font-size:14.266px;line-height:1.25;font-family:'Delta Block';-inkscape-font-specification:'Delta Block';text-align:center;text-anchor:middle;fill:none;stroke:#ffaaaa;stroke-width:1.5;stroke-dasharray:none;stroke-opacity:1"
       d="m 67.9767,194.46634 h 2.7197 l 1.6499,-7.103 h -2.6131 z m -0.9331,3.773 -0.9728,3.933 h -2.8354 l 3.8847,-14.809 3.4407,-3.346 h 2.5629 l 1.8358,3.346 -3.2179,14.809 h -2.8354 l 0.9137,-3.933 z m 8.951,3.933 h -2.8353 l 3.8088,-18.155 h 5.1258 l 2.0115,3.346 -0.8688,5.273 -2.7913,3.074 1.2201,6.462 H 78.83 l -1.011,-5.839 h -0.6869 z m 1.8575,-9.536 h 2.6922 l 0.948,-5.273 h -2.6131 z m 11.4023,5.603 0.4801,-3.773 h 2.7197 l -0.4235,3.773 -3.2768,3.933 h -2.8354 l -2.2168,-3.933 1.7103,-10.876 3.0891,-3.346 h 2.563 l 2.1873,3.346 -0.3906,3.48 h -2.6654 l 0.4428,-3.48 h -2.6131 l -1.5471,10.876 z m 6.5879,3.933 H 93.007 l 1.9014,-18.155 h 2.5629 l -0.6125,6.826 h 2.6654 l 0.5098,-6.826 h 2.563 l -1.084,18.155 h -2.8353 l 0.5758,-7.706 h -2.7197 z m 7.0887,0 0.205,-3.933 h 1.388 l 0.486,-10.876 h -1.306 l 0.175,-3.346 h 5.125 l -0.074,3.346 h -1.306 l -0.323,10.876 h 1.388 l -0.087,3.933 z m 12.759,0 h -2.835 l -0.005,-14.809 h -2.613 l 0.049,-3.346 h 7.689 l 0.101,3.346 h -2.613 z m 12.433,-3.933 0.326,3.933 h -8.506 l -0.687,-18.155 h 7.689 l 0.277,3.346 h -5.226 l 0.184,3.48 h 3.998 l 0.273,3.623 h -4.08 l 0.2,3.773 z m 6.941,0 -0.454,-3.773 h 2.72 l 0.511,3.773 -2.303,3.933 h -2.836 l -3.191,-3.933 -0.982,-10.876 2.26,-3.346 h 2.563 l 3.016,3.346 0.471,3.48 h -2.665 l -0.419,-3.48 h -2.613 l 1.146,10.876 z m 10.398,3.933 h -2.836 l -2.338,-14.809 h -2.613 l -0.479,-3.346 h 7.689 l 0.629,3.346 h -2.613 z m 9.198,-14.809 0.414,1.723 h -2.639 l -0.388,-1.723 h -2.613 l 0.732,3.48 h 2.665 l 3.537,3.623 0.907,3.773 -1.89,3.933 h -2.835 l -3.604,-3.933 -0.373,-1.906 h 2.748 l 0.401,1.906 h 2.777 l -0.851,-3.773 h -2.72 l -3.427,-3.623 -0.681,-3.48 1.909,-3.346 h 2.563 z"
       id="text1-8"
       aria-label="ARCHITECTS" /></g><g
     inkscape:groupmode="layer"
     id="layer4"
     inkscape:label="Foreground"
     style="display:inline"
     transform="translate(-62.263289,-183.26733)"><path
       style="font-size:14.266px;line-height:1.25;font-family:'Delta Block';-inkscape-font-specification:'Delta Block';text-align:center;text-anchor:middle;fill:#ff0000;stroke:none;stroke-width:0.5;stroke-dasharray:none"
       d="m 67.9767,194.46634 h 2.7197 l 1.6499,-7.103 h -2.6131 z m -0.9331,3.773 -0.9728,3.933 h -2.8354 l 3.8847,-14.809 3.4407,-3.346 h 2.5629 l 1.8358,3.346 -3.2179,14.809 h -2.8354 l 0.9137,-3.933 z m 8.951,3.933 h -2.8353 l 3.8088,-18.155 h 5.1258 l 2.0115,3.346 -0.8688,5.273 -2.7913,3.074 1.2201,6.462 H 78.83 l -1.011,-5.839 h -0.6869 z m 1.8575,-9.536 h 2.6922 l 0.948,-5.273 h -2.6131 z m 11.4023,5.603 0.4801,-3.773 h 2.7197 l -0.4235,3.773 -3.2768,3.933 h -2.8354 l -2.2168,-3.933 1.7103,-10.876 3.0891,-3.346 h 2.563 l 2.1873,3.346 -0.3906,3.48 h -2.6654 l 0.4428,-3.48 h -2.6131 l -1.5471,10.876 z m 6.5879,3.933 H 93.007 l 1.9014,-18.155 h 2.5629 l -0.6125,6.826 h 2.6654 l 0.5098,-6.826 h 2.563 l -1.084,18.155 h -2.8353 l 0.5758,-7.706 h -2.7197 z m 7.0887,0 0.205,-3.933 h 1.388 l 0.486,-10.876 h -1.306 l 0.175,-3.346 h 5.125 l -0.074,3.346 h -1.306 l -0.323,10.876 h 1.388 l -0.087,3.933 z m 12.759,0 h -2.835 l -0.005,-14.809 h -2.613 l 0.049,-3.346 h 7.689 l 0.101,3.346 h -2.613 z m 12.433,-3.933 0.326,3.933 h -8.506 l -0.687,-18.155 h 7.689 l 0.277,3.346 h -5.226 l 0.184,3.48 h 3.998 l 0.273,3.623 h -4.08 l 0.2,3.773 z m 6.941,0 -0.454,-3.773 h 2.72 l 0.511,3.773 -2.303,3.933 h -2.836 l -3.191,-3.933 -0.982,-10.876 2.26,-3.346 h 2.563 l 3.016,3.346 0.471,3.48 h -2.665 l -0.419,-3.48 h -2.613 l 1.146,10.876 z m 10.398,3.933 h -2.836 l -2.338,-14.809 h -2.613 l -0.479,-3.346 h 7.689 l 0.629,3.346 h -2.613 z m 9.198,-14.809 0.414,1.723 h -2.639 l -0.388,-1.723 h -2.613 l 0.732,3.48 h 2.665 l 3.537,3.623 0.907,3.773 -1.89,3.933 h -2.835 l -3.604,-3.933 -0.373,-1.906 h 2.748 l 0.401,1.906 h 2.777 l -0.851,-3.773 h -2.72 l -3.427,-3.623 -0.681,-3.48 1.909,-3.346 h 2.563 z"
       id="path76"
       aria-label="ARCHITECTS" /></g><g
     inkscape:groupmode="layer"
     id="layer3"
     inkscape:label="Maze decoration"
     style="display:inline"
     transform="translate(-62.263289,-183.26733)"><path
       id="path220"
       style="font-size:10.5833px;line-height:1.25;font-family:'Delta Block';-inkscape-font-specification:'Delta Block';text-align:center;text-anchor:middle;display:inline;fill:#000000;fill-opacity:0.318119;stroke:none;stroke-width:0.5;stroke-dasharray:none"
       d="m -184.01745,70.560551 -3.34605,-3.440617 -0.74259,-0.19482 2.55281,2.553332 1.53583,1.535824 z m 0,7.058484 -1.59164,1.591634 -1.75441,1.754415 v 0.527099 l -0.447,-0.0801 -0.2372,0.237195 1.21905,1.185457 0.60306,0.586528 1.51671,-0.911573 -0.27389,-0.289904 -0.57619,-0.609782 1.54151,-1.534274 z m 0,10.882023 -3.15743,-2.915068 -0.86713,0.867648 1.81746,1.817977 1.81797,1.81746 0.38913,-0.389124 z m 0,8.501807 -0.42375,0.429947 0.42375,0.03824 z m 0,3.031335 -0.17002,-0.0129 0.17002,0.17364 z m 0,1.85881 -0.66404,0.66404 0.66404,0.0398 z m 0,1.98592 -1.88671,-0.0987 -3.34036,3.34036 -0.4346,0.4346 2.30167,0.0682 0.53226,-0.53071 2.82774,-2.81482 z m 0,2.82463 -2.25051,2.25051 2.25051,0.0501 z m 0,4.92167 -1.56373,1.56373 1.56373,1.56373 z m 0,5.56968 -0.37776,-0.38137 -2.38848,-2.42207 -1.07952,1.07952 0.49971,-0.008 v 1.85725 l 0.5519,-0.55191 1.25316,1.25316 1.54099,-0.0465 z m 0,2.06086 -0.29559,0.0114 0.29559,0.29559 z m 0,2.76831 -2.66754,-2.66754 -0.26355,0.0103 -2.29598,2.29599 -0.45682,0.45682 2.33784,-0.12351 v 0.2465 l 0.5519,-0.55191 2.79415,2.78381 z m 0,4.81004 -2.79415,-2.79415 -0.5519,0.55191 v 2.46083 l 0.5519,-0.5519 0.62374,0.62425 2.17041,-0.17984 z m 0,4.14341 -4.02456,4.02508 -1.68569,1.68569 2.3642,-0.3204 3.34605,-3.01583 z m 0,6.21823 -1.60404,0.22944 -0.60875,0.59738 -1.13326,1.11983 v 1.14567 l -0.1757,0.0279 1.34255,1.34256 1.85157,1.85105 0.32763,-0.34624 v -1.74666 l -0.34985,-0.35657 -1.19166,-1.21388 0.57051,-0.60409 0.57619,-0.60979 0.39481,0.39481 z m 0,11.53315 -0.0703,-0.0403 0.0703,0.0703 z m 0,1.71307 -3.99666,3.99666 -0.49712,0.49712 1.14773,-0.27595 3.34605,-3.36775 z m -0.22686,-77.193738 -2.53938,-2.53938 -0.57981,-0.579809 v 2.217435 l -0.31729,-0.0739 1.84691,1.847433 z m -0.032,21.632788 -2.22829,-0.23306 -0.30696,0.307474 -0.3793,-0.379305 -2.74867,-0.287837 0.0796,0.07958 2.83342,2.833419 0.39481,0.03514 z m -0.21704,53.57606 -1.56735,-0.89349 -2.02158,2.02158 0.71882,-0.15141 v 1.89343 z m -0.62942,-38.18733 -2.24069,-0.0326 v 2.27325 l 0.5519,-0.55191 z m -0.0253,-18.466578 -2.21537,-2.231388 v 1.066601 l -1.49397,-0.190169 2.28514,2.285649 z m -0.0589,53.305788 -2.15646,-2.15646 v 2.46084 l 0.0853,0.0847 z m -0.37414,-68.387555 -0.10335,-0.103353 -3.11403,-0.65319 0.75655,0.756543 -0.61495,0.615467 -0.61547,0.614949 -2.64066,-2.640149 -3.11403,-0.65319 3.38791,3.387907 3.96152,0.771529 0.25063,-0.250631 z m 0,24.274485 -1.16582,-1.165818 -2.65927,-0.198437 1.36426,1.364255 -1.28416,1.28416 2.32234,0.13849 z m -0.0558,29.14034 -1.20251,-1.20251 -0.15606,-0.15606 -0.36794,-0.24856 -4.32842,0.39067 -2.99361,2.99362 2.75125,-0.28991 2.71766,-2.71766 1.20251,1.20251 1.20251,1.20251 0.58705,-0.58705 z m -1.71359,-55.184226 -3.38998,-3.389974 -3.206,-0.744657 1.06608,1.066085 2.39831,2.398303 3.11867,0.677478 z m -0.0568,67.956576 -0.0196,-0.0196 -2.23708,-2.23759 -2.12545,0.33538 2.28462,2.28462 z m -0.29558,-30.05863 -2.46187,0.001 -2.69699,2.69648 2.49959,-0.0382 z m -0.18656,-43.246973 -3.55378,-3.553272 -3.33572,-0.874882 3.61994,3.619934 z m -0.15244,77.536873 -0.15503,-0.15658 -2.60243,0.50901 -0.85007,0.85008 -1.20303,1.20251 0.61547,0.61495 0.61598,0.61546 1.78904,-1.81229 z m -0.0656,-63.156873 -3.18172,-3.196187 -1.3472,-0.242362 v -1.111044 l -2.67684,-2.689241 -2.70475,-2.71353 -3.05976,-0.641821 0.92656,0.933276 2.55126,2.563668 1.26659,0.246497 v 0.68678 l -0.28783,0.04961 1.30793,1.314132 -0.61495,0.614949 -0.61547,0.615467 -2.18023,-2.180229 -2.02623,0.350883 0.61547,0.609782 1.76475,1.753898 2.65927,-0.502295 0.83612,0.759643 0.79168,-0.791682 1.81798,1.81746 1.27796,1.277958 z m -0.185,68.273353 -0.79375,0.1788 v 0.61495 z m -0.36897,-59.150912 -0.58291,-0.58291 -1.59887,-1.598869 v 1.93735 z m -0.44907,-7.968506 -2.09548,-0.329179 -0.44338,0.443384 -1.20303,1.202511 0.92191,0.921907 2.78742,0.396358 -1.28157,-1.296044 1.19114,-1.213363 z m -0.38912,19.777608 -2.35542,-0.10542 -2.25567,2.25567 -0.3483,0.3483 2.39003,0.0713 0.41962,-0.41962 z m -0.006,14.54898 -2.44222,0.0925 -0.90434,0.90434 0.58756,0.58704 0.58704,0.58756 z m -0.009,14.55053 -1.3286,0.1602 v 1.1684 z m -0.0925,-37.044248 -2.04225,-2.042253 -0.91416,-0.914156 -2.74919,-0.287838 3.04788,3.047359 1.42162,1.421619 v -1.335836 z m -0.83974,4.081918 -3.0484,-3.047873 -0.971,-0.971 v 2.220536 l -0.13901,-0.01033 1.75287,1.752867 -1.01286,1.01286 2.32234,0.13901 z m -0.39636,22.2095 -0.83458,0.83457 -1.20251,-1.20251 -1.20251,-1.20251 -0.6966,0.6966 0.31316,-0.0165 v 2.08772 l 0.38344,-0.36277 1.2361,1.20252 0.97565,0.95704 0.53589,-0.0403 0.49196,-0.49195 z m 0,29.08453 -0.83458,0.83457 -1.20251,-1.20251 -1.20251,-1.20251 -0.38344,0.38396 v 1.69344 l 0.35554,0.35553 1.20251,1.20251 -2.08411,2.08411 0.52606,-0.12661 3.62304,-3.53725 z m -0.68523,-8.72453 -0.14366,-0.14521 -2.15439,-2.16783 -2.1177,0.33435 2.33784,2.33784 z m -1.09347,-30.76918 -2.3549,5.1e-4 -0.33641,0.33642 0.58756,0.58756 0.58704,0.58704 z m -0.71107,-28.378633 -2.12649,-0.334347 -2.39365,2.393653 3.05356,0.434598 -0.51366,-0.513663 1.20251,-1.202511 z m -0.29301,-10.874789 -1.09967,-1.099674 -3.514,-3.513997 v 0.835091 l -2.1177,-0.49196 3.58686,3.586861 z m -0.478,31.110242 -2.35593,-0.10542 -3.69125,3.69177 -0.34417,0.34416 2.25568,0.0496 v -1.38803 l 1.49913,0.0444 0.2248,-0.2248 z m -0.0517,21.71909 -0.31058,-0.31057 v 0.33383 z m -0.12402,-58.405219 -2.20814,-2.207617 -0.61495,0.61495 -0.61546,0.615466 3.25199,3.251998 v -2.320789 z m -0.006,61.131149 -2.69389,0.2434 -0.76688,0.76688 -2.43861,2.43913 0.62063,0.58704 0.61547,0.58188 0.709,-0.70125 v -0.7829 l 0.88625,-0.0935 1.45314,-1.43712 z m -0.18087,-37.043213 -2.72231,-2.722315 -1.0511,-0.133842 v -2.335258 l -2.78794,2.787944 1.34307,1.119311 0.73587,-0.737422 0.61495,0.615466 0.61547,0.615466 -0.62477,0.624768 0.10335,0.08578 3.77341,0.423747 z m 0,44.505813 -0.2036,0.2036 -0.62167,0.62167 0.82527,-0.11162 z m -0.51624,-1.94459 -2.79828,0.33693 -1.95596,1.95596 1.49707,0.87643 0.1018,-0.0139 2.23759,-2.23759 z m -0.032,-38.18733 -1.52911,-1.529106 -0.58704,0.587045 -0.58756,0.587561 0.12299,0.12299 z m -0.2527,19.09961 -0.63304,-0.63304 -1.81797,-1.81797 0.27957,-0.27957 -2.46135,5.1e-4 -0.27906,0.27906 2.48822,2.48822 z m -0.046,-14.58826 -1.81746,-1.817458 -0.13436,-0.134358 -3.13314,-0.234095 -1.59887,1.598871 -0.17519,0.17518 v 0.92914 l 1.44539,0.0863 1.77819,-1.778183 0.61495,0.615463 0.61547,0.61495 -0.68833,0.68627 2.22157,0.1328 z m 0,19.46445 -0.74879,-0.74879 -2.26343,0.0858 0.6072,0.6072 -2.43293,2.43292 -2.02107,2.02107 V 125.69 l 0.79634,0.81081 1.19682,1.23041 -0.59324,0.60152 2.53266,-0.20981 v -0.96532 l -0.69246,-0.67334 -1.21905,-1.18597 1.91151,-1.91152 v -0.81597 l 0.86145,-0.0455 z m 0,33.95038 -0.46664,-0.46664 -1.96216,0.44287 0.0238,0.0238 1.2361,1.2361 0.58187,-0.61495 z m -0.36742,-10.07122 -2.0376,-2.06602 0.39015,-0.41238 -2.77037,0.43718 1.79317,1.79317 0.5979,0.59842 z m -0.65268,4.23333 -1.90634,0.37311 -0.0698,0.0636 1.76578,1.76578 0.21032,-0.21032 z m -1.11052,-55.070537 -2.22416,-0.232544 -2.50424,2.50424 v 0.06821 l 2.1823,0.195854 z m -0.13126,-29.060758 -1.92133,-0.504362 -2.23449,2.242757 1.93787,0.479557 z m -0.14314,19.607072 -0.3142,-0.314193 -0.20722,-0.03256 -3.64939,2.056722 -0.28319,0.283187 v 2.460831 z m 0,72.823463 -1.23042,-1.23093 -1.23042,-1.23042 0.61495,-0.61495 0.61547,-0.61547 0.709,0.709 v -2.1673 l 0.19637,-0.0414 -0.90537,-0.90537 -1.2361,1.20251 -1.22473,1.20251 -0.58756,-0.58704 -0.10646,-0.10645 -0.0687,0.063 v 2.30115 l 1.00098,1.01493 2.9316,1.40921 0.15555,-0.0372 z m -0.52142,-53.73626 -1.49138,-0.0775 -2.4412,2.43293 v 2.38486 l 3.93258,-3.94498 z m -1.54306,-30.875114 -2.38952,-2.396753 v 1.877404 z m -0.0227,72.791934 -0.34571,-0.34571 -2.02107,-2.02158 v 2.46135 l 0.26872,0.26871 z m -0.30954,-29.39407 -2.05724,-2.05775 v 2.08928 z m -0.0641,4.74597 -0.51728,-0.51728 -1.47588,0.0558 v 2.45411 z m 0,14.59807 -1.19682,-1.23041 -0.79634,-0.81132 v 2.5771 l 0.93173,0.5457 z m -0.25114,-53.665973 -0.33642,-0.336413 -1.4056,-1.405599 v 2.070674 z m -0.23875,-5.048787 -1.50327,-1.503267 v 1.210262 z m -0.71675,-12.846244 -0.78652,-0.206189 v 0.992704 z m -0.50333,29.595092 -0.28319,-0.02945 v 0.313159 z m -0.16071,-24.101888 -0.12248,-0.02842 v 0.144178 z m -0.0145,34.00206 -0.10801,-0.006 v 0.11369 z"
       transform="rotate(-90)"
       sodipodi:nodetypes="cccccccccccccccccccccccccccccccccccccccccccccccccccccccccccccccccccccccccccccccccccccccccccccccccccccccccccccccccccccccccccccccccccccccccccccccccccccccccccccccccccccccccccccccccccccccccccccccccccccccccccccccccccccccccccccccccccccccccccccccccccccccccccccccccccccccccccccccccccccccccccccccccccccccccccccccccccccccccccccccccccccccccccccccccccccccccccccccccccccccccccccccccccccccccccccccccccccccccccccccccccccccccccccccccccccccccccccccccccccccccccccccccccccccccccccccccccccccccccccccccccccccccccccccccccccccccccccccccccccccccccccccccccccccccccccccccccccccccccccccccc" /></g><g
     inkscape:groupmode="layer"
     id="layer2"
     inkscape:label="Overlay"
     style="display:inline"
     transform="translate(-62.263289,-183.26733)"><path
       style="font-size:14.266px;line-height:1.25;font-family:'Delta Block';-inkscape-font-specification:'Delta Block';text-align:center;text-anchor:middle;display:inline;fill:url(#linearGradient82);stroke:none;stroke-width:0.5;stroke-dasharray:none"
       d="m 67.9767,194.46634 h 2.7197 l 1.6499,-7.103 h -2.6131 z m -0.9331,3.773 -0.9728,3.933 h -2.8354 l 3.8847,-14.809 3.4407,-3.346 h 2.5629 l 1.8358,3.346 -3.2179,14.809 h -2.8354 l 0.9137,-3.933 z m 8.951,3.933 h -2.8353 l 3.8088,-18.155 h 5.1258 l 2.0115,3.346 -0.8688,5.273 -2.7913,3.074 1.2201,6.462 H 78.83 l -1.011,-5.839 h -0.6869 z m 1.8575,-9.536 h 2.6922 l 0.948,-5.273 h -2.6131 z m 11.4023,5.603 0.4801,-3.773 h 2.7197 l -0.4235,3.773 -3.2768,3.933 h -2.8354 l -2.2168,-3.933 1.7103,-10.876 3.0891,-3.346 h 2.563 l 2.1873,3.346 -0.3906,3.48 h -2.6654 l 0.4428,-3.48 h -2.6131 l -1.5471,10.876 z m 6.5879,3.933 H 93.007 l 1.9014,-18.155 h 2.5629 l -0.6125,6.826 h 2.6654 l 0.5098,-6.826 h 2.563 l -1.084,18.155 h -2.8353 l 0.5758,-7.706 h -2.7197 z m 7.0887,0 0.205,-3.933 h 1.388 l 0.486,-10.876 h -1.306 l 0.175,-3.346 h 5.125 l -0.074,3.346 h -1.306 l -0.323,10.876 h 1.388 l -0.087,3.933 z m 12.759,0 h -2.835 l -0.005,-14.809 h -2.613 l 0.049,-3.346 h 7.689 l 0.101,3.346 h -2.613 z m 12.433,-3.933 0.326,3.933 h -8.506 l -0.687,-18.155 h 7.689 l 0.277,3.346 h -5.226 l 0.184,3.48 h 3.998 l 0.273,3.623 h -4.08 l 0.2,3.773 z m 6.941,0 -0.454,-3.773 h 2.72 l 0.511,3.773 -2.303,3.933 h -2.836 l -3.191,-3.933 -0.982,-10.876 2.26,-3.346 h 2.563 l 3.016,3.346 0.471,3.48 h -2.665 l -0.419,-3.48 h -2.613 l 1.146,10.876 z m 10.398,3.933 h -2.836 l -2.338,-14.809 h -2.613 l -0.479,-3.346 h 7.689 l 0.629,3.346 h -2.613 z m 9.198,-14.809 0.414,1.723 h -2.639 l -0.388,-1.723 h -2.613 l 0.732,3.48 h 2.665 l 3.537,3.623 0.907,3.773 -1.89,3.933 h -2.835 l -3.604,-3.933 -0.373,-1.906 h 2.748 l 0.401,1.906 h 2.777 l -0.851,-3.773 h -2.72 l -3.427,-3.623 -0.681,-3.48 1.909,-3.346 h 2.563 z"
       id="path81"
       aria-label="ARCHITECTS" /></g></svg>
