<?xml version="1.0" encoding="UTF-8" standalone="no"?>
<!-- Created with Inkscape (http://www.inkscape.org/) -->

<svg
   width="97.223709mm"
   height="56.59726mm"
   viewBox="0 0 97.223709 56.59726"
   version="1.1"
   id="svg1"
   inkscape:version="1.4 (86a8ad7, 2024-10-11)"
   sodipodi:docname="full.svg"
   xml:space="preserve"
   xmlns:inkscape="http://www.inkscape.org/namespaces/inkscape"
   xmlns:sodipodi="http://sodipodi.sourceforge.net/DTD/sodipodi-0.dtd"
   xmlns:xlink="http://www.w3.org/1999/xlink"
   xmlns="http://www.w3.org/2000/svg"
   xmlns:svg="http://www.w3.org/2000/svg"><sodipodi:namedview
     id="namedview1"
     pagecolor="#ffffff"
     bordercolor="#666666"
     borderopacity="1.0"
     inkscape:showpageshadow="2"
     inkscape:pageopacity="0.0"
     inkscape:pagecheckerboard="0"
     inkscape:deskcolor="#d1d1d1"
     inkscape:document-units="mm"
     inkscape:zoom="1.4142136"
     inkscape:cx="101.46982"
     inkscape:cy="223.79929"
     inkscape:window-width="1920"
     inkscape:window-height="1017"
     inkscape:window-x="1912"
     inkscape:window-y="-8"
     inkscape:window-maximized="1"
     inkscape:current-layer="layer1"><inkscape:page
       x="0"
       y="0"
       width="97.223709"
       height="56.59726"
       id="page2"
       margin="0"
       bleed="0" /></sodipodi:namedview><defs
     id="defs1"><linearGradient
       id="linearGradient84"
       inkscape:collect="always"><stop
         style="stop-color:#000000;stop-opacity:1;"
         offset="0"
         id="stop84" /><stop
         style="stop-color:#000000;stop-opacity:0;"
         offset="1"
         id="stop85" /></linearGradient><linearGradient
       id="linearGradient81"
       inkscape:collect="always"><stop
         style="stop-color:#000000;stop-opacity:1;"
         offset="0"
         id="stop81" /><stop
         style="stop-color:#ff0000;stop-opacity:0;"
         offset="1"
         id="stop82" /></linearGradient><linearGradient
       inkscape:collect="always"
       xlink:href="#linearGradient81"
       id="linearGradient82"
       x1="123.86149"
       y1="179.78114"
       x2="123.86149"
       y2="210.16898"
       gradientUnits="userSpaceOnUse"
       gradientTransform="translate(0,5.2916669)" /><linearGradient
       inkscape:collect="always"
       xlink:href="#linearGradient84"
       id="linearGradient85"
       x1="-182.562"
       y1="110.7282"
       x2="-171.45"
       y2="110.7282"
       gradientUnits="userSpaceOnUse"
       gradientTransform="rotate(-90,-2.6458331,-2.6458331)" /></defs><g
     inkscape:groupmode="layer"
     id="layer7"
     inkscape:label="Shadow"
     style="display:inline;opacity:0.263228;fill:#ffffff;stroke:#ffffff"
     transform="translate(-62.097896,-158.51257)"><path
       style="font-size:14.266px;line-height:1.25;font-family:'Delta Block';-inkscape-font-specification:'Delta Block';text-align:center;text-anchor:middle;display:inline;opacity:1;fill:#ff00ff;stroke:#ff00ff;stroke-width:0.5;stroke-dasharray:none"
       d="m 67.9767,201.87472 h 2.7197 l 1.6499,-7.103 h -2.6131 z m -0.9331,3.773 -0.9728,3.933 h -2.8354 l 3.8847,-14.809 3.4407,-3.346 h 2.5629 l 1.8358,3.346 -3.2179,14.809 h -2.8354 l 0.9137,-3.933 z m 8.951,3.933 h -2.8353 l 3.8088,-18.155 h 5.1258 l 2.0115,3.346 -0.8688,5.273 -2.7913,3.074 1.2201,6.462 H 78.83 l -1.011,-5.839 h -0.6869 z m 1.8575,-9.536 h 2.6922 l 0.948,-5.273 h -2.6131 z m 11.4023,5.603 0.4801,-3.773 h 2.7197 l -0.4235,3.773 -3.2768,3.933 h -2.8354 l -2.2168,-3.933 1.7103,-10.876 3.0891,-3.346 h 2.563 l 2.1873,3.346 -0.3906,3.48 h -2.6654 l 0.4428,-3.48 h -2.6131 l -1.5471,10.876 z m 6.5879,3.933 H 93.007 l 1.9014,-18.155 h 2.5629 l -0.6125,6.826 h 2.6654 l 0.5098,-6.826 h 2.563 l -1.084,18.155 h -2.8353 l 0.5758,-7.706 h -2.7197 z m 7.0887,0 0.205,-3.933 h 1.388 l 0.486,-10.876 h -1.306 l 0.175,-3.346 h 5.125 l -0.074,3.346 h -1.306 l -0.323,10.876 h 1.388 l -0.087,3.933 z m 12.759,0 h -2.835 l -0.005,-14.809 h -2.613 l 0.049,-3.346 h 7.689 l 0.101,3.346 h -2.613 z m 12.433,-3.933 0.326,3.933 h -8.506 l -0.687,-18.155 h 7.689 l 0.277,3.346 h -5.226 l 0.184,3.48 h 3.998 l 0.273,3.623 h -4.08 l 0.2,3.773 z m 6.941,0 -0.454,-3.773 h 2.72 l 0.511,3.773 -2.303,3.933 h -2.836 l -3.191,-3.933 -0.982,-10.876 2.26,-3.346 h 2.563 l 3.016,3.346 0.471,3.48 h -2.665 l -0.419,-3.48 h -2.613 l 1.146,10.876 z m 10.398,3.933 h -2.836 l -2.338,-14.809 h -2.613 l -0.479,-3.346 h 7.689 l 0.629,3.346 h -2.613 z m 9.198,-14.809 0.414,1.723 h -2.639 l -0.388,-1.723 h -2.613 l 0.732,3.48 h 2.665 l 3.537,3.623 0.907,3.773 -1.89,3.933 h -2.835 l -3.604,-3.933 -0.373,-1.906 h 2.748 l 0.401,1.906 h 2.777 l -0.851,-3.773 h -2.72 l -3.427,-3.623 -0.681,-3.48 1.909,-3.346 h 2.563 z"
       id="path68"
       aria-label="ARCHITECTS"
       inkscape:export-filename="..\..\images\logo\full.svg"
       inkscape:export-xdpi="127"
       inkscape:export-ydpi="127" /></g><g
     inkscape:groupmode="layer"
     id="layer5"
     inkscape:label="Maze"
     style="display:inline"
     transform="translate(-62.097896,-158.51257)"><g
       transform="matrix(0.00221083,0.00221083,0.00221083,-0.00221083,82.429508,186.81121)"
       fill="#000000"
       stroke="none"
       id="g5"
       style="display:inline;fill:#ff00ff;fill-opacity:0.168741;stroke-width:11.2832"
       inkscape:export-filename="..\..\images\logo\maze.svg"
       inkscape:export-xdpi="127"
       inkscape:export-ydpi="127"><path
         d="m 0,12260 v -540 h 535 c 294,0 537,0 540,0 3,0 6,145 6,323 v 322 H 758 435 l -3,-107 -3,-108 h 221 220 v -110 -110 H 545 220 v 325 325 h 540 540 v -1085 -1085 h 325 325 v 545 545 h -105 -105 v -435 -435 h -110 -110 v 545 546 l 323,-3 322,-3 3,-217 2,-218 h 325 325 v 325 325 h -110 -110 v -215 -215 h -105 -105 v 325 325 h 325 325 v -435 -435 h 105 105 v 545 545 h -753 c -415,0 -756,-2 -758,-4 -2,-2 -3,-52 -1,-110 l 3,-106 h 215 214 v -110 -110 h -325 -325 v 325 325 h 975 975 v -1190 -1190 l -432,-2 -433,-3 -3,-322 -2,-323 h 870 870 v -435 -435 h 325 325 v 105 105 h -215 -215 v 110 110 h 325 325 v -215 -215 h 215 215 v -435 -435 h 545 545 l -2,1193 -3,1192 -542,3 -543,2 v -110 -110 h 435 435 v -975 -975 h -325 -325 l -2,431 -3,430 -215,2 -215,2 -3,218 -2,217 h -430 -430 l -2,865 -3,866 h -323 -323 v -323 -323 l 106,-3 105,-3 v 221 220 h 110 110 v -545 -545 h -110 -110 v 220 221 l -106,-3 -105,-3 -2,-215 -2,-215 -542,-3 -543,-2 v 110 110 h 435 435 v 650 650 h 650 650 v 545 545 l -540,-2 -541,-3 v -323 -323 h 323 323 l 3,106 3,105 h -221 -220 v 110 110 h 325 325 v -325 -325 h -540 -540 v 540 540 h 760 760 v -650 -650 h 105 105 l 2,218 3,217 215,2 215,2 3,326 2,325 h -110 -110 v -220 -221 l -107,3 -108,3 -3,323 -2,322 h 325 325 v -215 -215 h 980 981 l -3,108 -3,107 -867,3 -868,2 v 105 105 h 975 975 v -215 -215 h 110 110 v 215 215 h 1845 1845 v -325 -325 H 11065 9980 v -107 -108 h 1082 1083 l 3,-217 2,-218 h 110 110 v 650 650 h 105 105 v -760 -760 l -322,2 -323,3 -3,218 -2,217 H 10845 9760 v 325 325 h 1085 1085 v 110 110 H 10305 8680 v -110 -110 h 435 435 v -435 -435 h 650 650 v -325 -325 h -545 -545 v 110 110 h 435 435 v 105 105 l -540,2 -540,3 v -328 -327 l 755,2 756,3 -1,433 v 432 h 330 330 v -540 -540 h -110 -110 v 430 430 h -110 -110 v -430 -430 h -865 -865 v -110 -110 h 1190 1190 v 435 435 h 325 325 v -325 -325 h -105 -105 v 215 215 h -110 -110 v -325 -325 h 215 215 v -325 -325 l -430,-2 -430,-3 -3,-430 -2,-430 -217,-3 -218,-2 v -436 -435 l -107,3 -108,3 v 540 540 l 217,3 218,2 v 105 105 l -217,2 -218,3 v 325 325 l 108,3 107,3 v -221 -220 h 110 110 v 220 220 h 435 435 v 105 105 h -760 -760 v -215 -215 h -110 -110 v 215 215 h -540 -540 v -650 -650 h -870 -870 v -325 -325 h 110 110 v 215 215 h 105 105 v -215 -215 h 1195 1195 v 435 435 h -110 -110 v -325 -325 h -975 -975 v 105 105 h 650 650 l 2,653 3,652 323,3 322,2 v -110 -110 h -215 -215 v -545 -546 l 108,3 107,3 3,433 2,432 h 105 104 l 3,-107 3,-108 108,-3 107,-3 v 111 110 h 110 110 V 7810 6510 l 433,-2 432,-3 v -647 -648 h 218 217 V 4885 4560 H 10955 9760 v 650 650 h -540 -540 v -110 -110 h 215 215 v -215 -215 h 110 110 v 215 215 h 110 110 v -540 -540 h -110 -110 v 215 215 H 9220 9110 V 4120 3250 H 6835 4560 v 110 110 h 215 215 v 220 221 l 108,-3 107,-3 3,-217 2,-218 h 105 105 v 1085 1085 h 1085 1085 v 325 325 H 6290 4990 v 220 220 h -325 -325 v -435 -435 h -435 -435 v -545 -545 h 435 435 v -325 -325 h -217 -218 l 3,-215 3,-215 H 3475 3040 V 2605 1520 h -545 -545 v 215 215 H 1735 1520 V 3035 4120 H 1410 1300 V 2710 1300 h 110 110 v 220 221 l 108,-3 107,-3 3,-217 2,-218 h 975 975 v 975 975 h -110 -110 v -865 -865 h -110 -110 v 975 975 h 330 330 V 2388 1305 l 105,-3 105,-3 2,1303 3,1303 215,2 215,2 3,540 2,541 h -435 -435 v 325 325 h 650 650 v 110 110 h -215 -215 v 325 325 h 105 105 l 2,-217 3,-218 1303,-3 1302,-2 V 5965 5860 H 6295 5210 l -2,-217 -3,-218 -650,-5 -650,-5 v -103 -102 h 653 652 v -545 -545 h -110 -110 v 435 435 h -110 -110 v -650 -650 h -215 -215 v -325 -325 h 215 215 l 2,-650 3,-651 323,-2 322,-2 v 433 432 h 545 545 V 1735 870 h 110 110 v 975 975 h -760 -760 v -435 -435 h -110 -110 v 545 545 h 975 975 V 1955 870 h 110 110 v 1085 1085 h 975 975 v -110 -110 h -865 -865 v -542 -543 h 105 105 v 433 432 h 110 110 l -2,-758 -3,-757 h -105 -105 l -3,218 -2,217 H 7485 7380 V 1195 870 h 325 325 v 865 865 h 650 650 v 870 870 h 975 975 v -760 -760 h -110 -110 v 650 650 h -755 -755 v -760 -760 l 323,2 322,3 v 215 215 l -107,3 -108,3 v -111 -110 h -110 -110 l 2,542 3,543 108,3 107,3 v -331 -331 l 108,3 107,3 3,328 2,327 323,-2 322,-3 3,-653 2,-652 h 325 325 v 870 870 h 435 435 v 975 975 h -110 -110 v -435 -436 l -107,3 -108,3 -3,758 -2,757 h 220 220 v 325 325 h -110 -110 v -215 -215 h -435 -435 v -110 -110 h 220 221 l -2,-105 -1,-105 h -329 -329 l 2,323 3,322 433,3 432,2 v 105 105 h -215 -215 v 325 325 h 215 215 v 435 435 h 325 325 v -110 -110 h -215 -215 v -215 -215 h 110 110 v 110 110 h 105 105 v -325 -325 h -105 -105 v 105 105 h -110 -110 v -105 -105 l -216,-2 -216,-3 v -105 -105 l 431,-3 431,-2 v -540 -540 h -215 -215 v -110 -110 h 215 215 V 5315 4120 h -432 -433 l 2,-322 2,-323 327,-3 327,-2 -7,52 c -3,29 -6,79 -6,111 v 57 h -215 -216 l 3,108 3,107 323,3 322,2 V 2715 1520 H 11280 9980 v -110 -110 h 650 650 V 975 650 h -650 -650 V 540 430 h 760 760 v 435 435 h 540 540 V 760 220 h -105 -105 l -2,430 -3,431 h -323 -323 l -2,-106 -2,-105 h 218 217 V 435 0 h 325 325 v 6400 6400 H 6400 0 Z"
         id="path1"
         style="fill:#ff00ff;fill-opacity:0.168741;stroke-width:11.2832" /><path
         d="m 6070,11715 v -215 h -215 -215 v -220 -220 h -432 l -433,1 -3,-756 -2,-755 h 435 435 v -220 -220 h 110 110 v 220 220 h 105 105 l 2,-652 3,-653 108,-3 107,-3 v 761 760 h -650 -650 v 545 545 h 325 325 v -110 -110 h -215 -215 v -325 -325 h 105 105 v 215 215 h 760 760 v -430 -430 l 218,-2 217,-3 3,-1082 2,-1083 h 430 430 l 2,-217 3,-218 108,-3 107,-3 v 221 220 l 543,-2 542,-3 3,-107 3,-108 h -436 -435 v -215 -215 h -325 -325 v 215 215 H 7595 7160 V 8245 9330 H 7050 6940 V 8135 6940 h 435 435 v -105 -105 h -542 -543 l 3,430 2,430 H 5645 4560 v 325 325 h 325 325 v -105 -105 h -220 -220 v -110 -110 h 325 325 v 325 325 h -540 -540 v -540 -540 h 1085 1085 v -325 -325 h -545 -545 v 105 105 h 435 435 v 110 110 H 5205 4120 v 1085 1085 h -760 -760 v -435 -435 h -325 -325 v 435 435 h -215 -215 v 215 215 h -110 -110 v -435 -436 l -107,3 -108,3 -3,543 -2,542 h 545 545 v -110 -110 h -214 -215 l -3,-105 -3,-105 h 218 217 v -435 -435 h 110 110 v 1085 1085 h 325 325 v -110 -110 h -220 -221 l 3,-107 3,-108 323,-3 322,-2 v 327 328 l -540,-3 -540,-2 v -430 -430 h -545 -545 v 430 l 1,431 H 758 435 v -323 -323 l 108,-3 107,-3 v 221 220 H 760 870 V 9765 8680 h 325 325 v 215 215 h 110 110 v -432 l -1,-433 431,-3 430,-2 v -215 -215 h 110 110 v 215 215 h 325 325 v -430 -430 h 110 110 l -2,755 -3,756 -323,2 -322,2 v -107 -108 h 215 215 v -110 -110 h -325 -325 v 325 325 h 545 545 v -975 -975 h -330 -330 v 435 435 h -105 -105 v -650 -650 h -545 -545 v 430 430 h -107 -108 l 3,-215 3,-215 H 1195 650 v 110 110 h 218 217 l -2,322 -2,323 -106,3 -105,3 V 7810 7590 H 545 220 v 1845 1845 l 431,2 431,3 v 105 105 l -541,3 -541,2 V 5750 0 h 5965 5965 v 325 325 h -107 -108 l 3,-215 3,-215 h -980 -981 v 325 325 h 653 652 l -2,105 -2,105 h -865 -866 v 545 545 h 1300 1300 v 435 435 h 110 110 V 2495 1950 H 10850 9550 v -325 -325 h 105 105 l 2,218 3,217 1300,2 1300,3 3,755 2,755 h -327 -328 l 2,-430 3,-430 h -545 -545 v 650 650 h -110 -110 V 3040 2390 H 9545 8680 V 1410 430 h 325 325 v 110 110 l -217,2 -218,3 v 755 755 l 108,3 107,3 V 1521 870 l 218,-2 217,-3 3,-323 2,-322 H 7270 4990 v 540 540 h 435 435 v 435 435 h 105 105 V 1410 650 h -325 -326 l 3,107 3,108 218,3 218,2 -3,105 -3,106 -323,2 -322,2 V 758 430 h 1625 1625 v 980 981 l -107,-3 -108,-3 -3,-867 -2,-868 h -975 -975 v 870 870 h -325 -325 v -435 -435 h -540 -540 v 650 650 h -110 -110 l -2,-867 -3,-868 -1080,-2 -1080,-3 -3,-105 -3,-105 h 1196 1195 v 215 215 h 105 105 V 760 220 H 3145 1520 V 435 650 H 1410 1300 V 435 220 H 975 650 V 435 650 H 540 430 V 435 220 H 325 220 V 545 870 H 545 870 V 650 429 l 105,3 106,3 2,215 2,215 h 325 325 l 2,-215 2,-215 h 1408 1408 l 3,108 3,107 H 3255 1950 v 218 217 H 1517 1085 V 2167 3250 H 978 870 l -2,-1082 -3,-1083 -322,-3 -323,-3 V 2710 4340 H 545 870 V 4015 3690 H 760 650 v 215 215 H 540 430 V 2710 1300 h 110 110 v 1085 1085 l 215,2 215,3 3,1408 2,1407 H 757 430 l 2,-757 3,-758 108,-3 107,-3 v 651 650 H 760 870 V 5315 4560 H 545 220 v 975 975 h 540 540 V 5425 4340 h 220 220 V 3255 2170 h 215 215 v -214 -215 l 106,-3 c 58,-2 108,-1 110,1 2,2 4,442 4,978 v 973 h -110 -110 v -650 -650 h -110 -110 l 2,758 3,757 322,3 323,2 V 2825 1740 h 110 110 v 1085 1085 h 433 l 432,-1 3,106 3,105 h -871 -870 v 220 220 H 1735 1520 V 5645 6730 H 870 220 v 325 325 h 105 105 v -220 -220 h 655 655 V 5858 4775 l 215,-3 215,-2 v -215 -215 h 325 325 v 760 760 h -110 -110 v -649 -650 l -105,-3 -105,-3 v 218 217 h -220 -220 v 760 760 h 870 871 l -3,108 -3,107 -217,3 -218,2 v 105 105 h 330 330 l -2,-322 -3,-323 -867,-3 -868,-2 v -540 -540 h 110 110 v 430 430 h 325 325 v -865 -865 h 540 540 v 110 110 h -435 -435 v 755 755 h 435 435 v 435 435 h 545 545 V 6725 6510 H 6510 7810 V 5965 5420 H 6725 5640 v -755 -755 l 975,-2 975,-3 v 218 217 h 545 545 v -325 -325 h -325 -325 v 110 111 l 215,-3 215,-3 v 108 107 H 8135 7810 V 3905 3690 H 6725 5640 v -110 -110 l 1625,2 1625,3 v 540 540 l -1190,3 -1190,2 v -110 -110 h 435 435 v -110 -110 h -545 -545 v 325 325 l 1300,2 1301,3 2,323 2,322 h -217 -218 v 325 325 h 650 650 v 110 110 h -215 -215 v 110 110 h 325 325 v -870 -870 h 538 c 296,0 541,2 543,4 2,2 3,248 1,545 l -2,541 h -325 -325 v -325 -325 h 110 110 v 215 215 h 110 110 v -325 -325 h -325 -325 v 540 540 h 540 540 v -650 -650 h 325 325 v 110 110 h -215 -215 v 650 650 h -650 -650 v 435 435 h -110 -110 v -215 -215 l -432,-2 -433,-3 -3,-217 -2,-218 h -435 -435 v -540 -540 h 220 220 V 5100 4990 H 7375 6070 v -435 -435 h -105 -105 v 545 545 h 1085 1085 v 650 650 h 433 432 l -3,215 -3,215 h 435 436 l 2,218 3,217 323,3 322,2 v -435 -435 h 110 110 v 540 540 H 9110 7590 v 545 545 h 870 870 v 540 540 h -325 -325 v -325 -326 l 106,3 105,3 2,215 2,215 108,3 107,3 v -331 -330 l -322,2 -323,3 -3,543 -2,542 h 435 435 v 540 540 h -110 -110 v -215 -215 h -435 -436 l 3,-107 3,-108 433,-3 432,-2 v -105 -105 h -540 -540 v 325 325 h 433 432 v 432 433 l 108,2 107,2 v -219 -220 h 110 110 v 325 325 h -325 -325 l -2,-432 -3,-433 -432,-3 -433,-2 v -975 -975 h 110 110 v 435 435 h 105 105 v -545 -545 l -322,2 -323,3 -3,433 -2,432 h -215 -215 v 435 435 h -650 -650 v 325 325 h 215 215 v 325 325 h -110 -110 z"
         id="path2"
         style="fill:#ff00ff;fill-opacity:0.168741;stroke-width:11.2832" /><path
         d="m 6508,11498 -3,-433 -215,-2 -215,-2 -3,-105 -3,-106 653,-2 653,-3 3,-432 2,-433 h 105 105 v 650 650 h 435 435 v 325 325 h -110 -110 v -215 -215 h -650 -650 v -110 -110 h 220 221 l -3,-107 -3,-108 -322,-3 -322,-2 -3,326 c -2,179 -1,327 1,330 2,2 295,4 650,4 h 646 l 3,105 3,105 h -761 -760 z"
         id="path3"
         style="fill:#ff00ff;fill-opacity:0.168741;stroke-width:11.2832" /><path
         d="m 437,10193 c -4,-3 -7,-541 -7,-1195 V 7810 h 110 110 v 215 215 l 216,2 215,3 2,108 2,107 H 868 650 v 870 870 H 547 c -57,0 -107,-3 -110,-7 z"
         id="path4"
         style="fill:#ff00ff;fill-opacity:0.168741;stroke-width:11.2832" /><path
         d="m 1300,7920 v -540 h 110 110 v 215 215 h 325 325 v -435 -435 h 325 325 v 325 325 h -110 -110 v -215 -215 h -105 -105 v 435 435 h -435 -435 v 215 215 h -110 -110 z"
         id="path5"
         style="fill:#ff00ff;fill-opacity:0.168741;stroke-width:11.2832" /></g></g><g
     inkscape:label="Outline"
     inkscape:groupmode="layer"
     id="layer1"
     style="display:inline;stroke-width:1.5;stroke-dasharray:none"
     transform="translate(-62.097896,-158.51257)"><path
       style="font-size:10.5833px;line-height:1.25;font-family:'Delta Block';-inkscape-font-specification:'Delta Block';text-align:center;text-anchor:middle;fill:none;stroke:#aaccff;stroke-width:1.5;stroke-dasharray:none"
       d="m 71.4322,177.2703 h -1.7171 l -3.5877,-8.705 h -1.8602 l -1.0318,-2.407 h 5.6991 l 0.9132,2.407 h -1.8601 z m 4.2929,0 h -1.7172 l -4.1235,-11.112 h 1.8997 l 1.6729,4.717 h 1.8222 l -1.5954,-4.717 h 1.8997 l 3.5759,11.112 h -1.7172 l -1.4132,-4.178 h -1.7858 z m 8.9029,-2.048 0.5414,2.048 h -5.1515 l -3.4845,-11.112 h 5.6991 l 0.6363,2.407 h -3.7203 l 0.6862,2.31 h 2.7333 l 0.6042,2.217 h -2.6787 l 0.633,2.13 z m 9.1271,2.048 H 92.038 l -1.7286,-8.705 h -1.8601 l -0.5177,-2.407 h 5.6991 l 0.399,2.407 h -1.8601 z m 4.0039,-2.048 h 1.7508 l -0.8297,-6.657 H 96.82 Z m 0.289,2.048 -2.0398,-2.048 -1.0484,-6.657 1.5205,-2.407 H 98.38 l 2.16,2.407 0.721,6.657 -1.4959,2.048 z m 8.275,-5.276 0.311,5.276 h -1.717 l -0.398,-5.276 -1.14,-2.842 0.679,8.118 h -1.717 l -1.111,-11.112 h 2.849 l 1.151,2.994 0.749,-2.994 h 2.849 l 0.381,11.112 h -1.717 l -0.411,-8.118 z m 5.4,-1.119 h 1.823 l 0.015,-2.31 h -1.86 z m -1.655,6.395 -0.29,-11.112 h 3.8 l 1.844,2.407 -0.054,2.31 -0.928,1.119 0.876,1.098 -0.049,2.13 -1.765,2.048 z m 1.697,-2.048 h 1.751 l 0.015,-2.13 h -1.786 z m 10.505,0 h 1.751 l 0.701,-6.657 h -1.86 z m -0.182,2.048 -1.569,-2.048 0.483,-6.657 2.074,-2.407 h 1.9 l 1.606,2.407 -0.81,6.657 -1.967,2.048 z m 6.01,0 h -1.717 l 1.444,-11.112 h 5.7 l -0.432,2.407 h -3.72 l -0.339,2.31 h 2.734 l -0.379,2.217 h -2.679 z m 12.02,0 h -1.717 l 2.133,-8.705 h -1.861 l 0.551,-2.407 h 5.699 l -0.669,2.407 h -1.86 z m 4.293,0 h -1.717 l 3.179,-11.112 h 1.899 l -1.426,4.717 h 1.822 l 1.504,-4.717 h 1.9 l -3.727,11.112 h -1.717 l 1.333,-4.178 h -1.786 z m 10.249,-2.048 -0.805,2.048 h -5.151 l 3.818,-11.112 h 5.699 l -0.946,2.407 h -3.72 l -0.832,2.31 h 2.734 l -0.853,2.217 h -2.679 l -0.767,2.13 z"
       id="text1"
       aria-label="THE TOMB OF THE"
       inkscape:export-filename="..\..\images\logo\thetombofthe.svg"
       inkscape:export-xdpi="127"
       inkscape:export-ydpi="127" /><path
       style="font-size:14.266px;line-height:1.25;font-family:'Delta Block';-inkscape-font-specification:'Delta Block';text-align:center;text-anchor:middle;fill:none;stroke:#ffaaaa;stroke-width:1.5;stroke-dasharray:none;stroke-opacity:1"
       d="m 67.9767,199.75804 h 2.7197 l 1.6499,-7.103 h -2.6131 z m -0.9331,3.773 -0.9728,3.933 h -2.8354 l 3.8847,-14.809 3.4407,-3.346 h 2.5629 l 1.8358,3.346 -3.2179,14.809 h -2.8354 l 0.9137,-3.933 z m 8.951,3.933 h -2.8353 l 3.8088,-18.155 h 5.1258 l 2.0115,3.346 -0.8688,5.273 -2.7913,3.074 1.2201,6.462 H 78.83 l -1.011,-5.839 h -0.6869 z m 1.8575,-9.536 h 2.6922 l 0.948,-5.273 h -2.6131 z m 11.4023,5.603 0.4801,-3.773 h 2.7197 l -0.4235,3.773 -3.2768,3.933 h -2.8354 l -2.2168,-3.933 1.7103,-10.876 3.0891,-3.346 h 2.563 l 2.1873,3.346 -0.3906,3.48 h -2.6654 l 0.4428,-3.48 h -2.6131 l -1.5471,10.876 z m 6.5879,3.933 H 93.007 l 1.9014,-18.155 h 2.5629 l -0.6125,6.826 h 2.6654 l 0.5098,-6.826 h 2.563 l -1.084,18.155 h -2.8353 l 0.5758,-7.706 h -2.7197 z m 7.0887,0 0.205,-3.933 h 1.388 l 0.486,-10.876 h -1.306 l 0.175,-3.346 h 5.125 l -0.074,3.346 h -1.306 l -0.323,10.876 h 1.388 l -0.087,3.933 z m 12.759,0 h -2.835 l -0.005,-14.809 h -2.613 l 0.049,-3.346 h 7.689 l 0.101,3.346 h -2.613 z m 12.433,-3.933 0.326,3.933 h -8.506 l -0.687,-18.155 h 7.689 l 0.277,3.346 h -5.226 l 0.184,3.48 h 3.998 l 0.273,3.623 h -4.08 l 0.2,3.773 z m 6.941,0 -0.454,-3.773 h 2.72 l 0.511,3.773 -2.303,3.933 h -2.836 l -3.191,-3.933 -0.982,-10.876 2.26,-3.346 h 2.563 l 3.016,3.346 0.471,3.48 h -2.665 l -0.419,-3.48 h -2.613 l 1.146,10.876 z m 10.398,3.933 h -2.836 l -2.338,-14.809 h -2.613 l -0.479,-3.346 h 7.689 l 0.629,3.346 h -2.613 z m 9.198,-14.809 0.414,1.723 h -2.639 l -0.388,-1.723 h -2.613 l 0.732,3.48 h 2.665 l 3.537,3.623 0.907,3.773 -1.89,3.933 h -2.835 l -3.604,-3.933 -0.373,-1.906 h 2.748 l 0.401,1.906 h 2.777 l -0.851,-3.773 h -2.72 l -3.427,-3.623 -0.681,-3.48 1.909,-3.346 h 2.563 z"
       id="text1-8"
       aria-label="ARCHITECTS" /><g
       id="g1"
       transform="matrix(0.53922129,0,0,0.53922129,44.33591,76.268197)"><path
         d="m 84.793729,202.99869 v -2.43164 h 2.431637 v 2.43164 h 3.647457 v -3.64746 h -1.215819 v -1.21582 h -2.431638 v -1.21582 h -1.215818 v -1.21582 h -1.215819 v -2.43163 h 1.215819 v -1.21582 h 6.079093 v 1.21582 h 1.215819 v 2.43163 h -2.431637 v -2.43163 h -3.647457 v 2.43163 h 1.215819 v 1.21582 h 2.431638 v 1.21582 h 1.215818 v 1.21582 h 1.215819 v 3.64746 h -1.215819 v 1.21582 h -6.079093 v -1.21582 z m 9.72655,0 v -9.72655 h 1.215819 v -1.21582 h 6.079092 v 1.21582 h 1.21582 v 9.72655 h -1.21582 v 1.21582 h -6.079092 v -1.21582 z m 2.431637,0 h 3.647454 v -9.72655 h -3.647454 z m 7.294914,1.21582 v -1.21582 h 1.21582 v -9.72655 h -1.21582 v -1.21582 h 8.51073 v 3.64745 h -1.21582 v -1.21581 h -1.21582 v -1.21582 h -2.43164 v 3.64745 h 1.21582 v -1.21582 h 1.21582 v 3.64746 h -1.21582 v -1.21582 h -1.21582 v 4.86328 h 1.21582 v 1.21582 z m 10.94237,-8.51074 v -3.64745 h 7.29491 v 3.64745 h -1.21582 v -1.21581 h -1.21582 v 8.51073 h 1.21582 v 1.21582 h -4.86327 v -1.21582 h 1.21581 v -8.51073 h -1.21581 v 1.21581 z m 8.51073,7.29492 v -10.94237 h 2.43164 v 8.51073 h 1.21582 v -3.64746 h 1.21582 v 3.64746 h 1.21582 v -8.51073 h 2.43163 v 10.94237 h -1.21582 v 1.21582 h -2.43163 v -2.43164 h -1.21582 v 2.43164 h -2.43164 v -1.21582 z m 9.72655,1.21582 v -8.51074 h 1.21582 v -1.21581 h 1.21582 v -1.21582 h 1.21582 v -1.21582 h 1.21582 v 1.21582 h 1.21582 v 1.21582 h 1.21582 v 1.21581 h 1.21581 v 8.51074 h -2.43163 v -4.86328 h -3.64746 v 4.86328 z m 2.43164,-6.0791 h 3.64746 v -2.43164 h -1.21582 v -1.21581 h -1.21582 v 1.21581 h -1.21582 z m 7.29491,6.0791 v -1.21582 h 1.21582 v -9.72655 h -1.21582 v -1.21582 h 7.29491 v 1.21582 h 1.21582 v 3.64745 h -1.21582 v 2.43164 h 1.21582 v 4.86328 h -2.43164 v -4.86328 h -1.21581 v -1.21582 h -1.21582 v 6.0791 z m 3.64746,-7.29492 h 2.43163 v -3.64745 h -2.43163 z m 6.0791,7.29492 v -1.21582 h 1.21581 v -9.72655 h -1.21581 v -1.21582 h 8.51073 v 3.64745 h -1.21582 v -1.21581 h -1.21582 v -1.21582 h -2.43164 v 3.64745 h 1.21582 v -1.21582 h 1.21582 v 3.64746 h -1.21582 v -1.21582 h -1.21582 v 4.86328 h 2.43164 v -1.21582 h 1.21582 v -1.21582 h 1.21582 v 3.64746 z"
         id="text74"
         style="font-size:19.4531px;line-height:1.25;font-family:'PxPlus IBM VGA 8x16';-inkscape-font-specification:'PxPlus IBM VGA 8x16';text-align:center;text-anchor:middle;display:inline;fill:#ffffff;stroke:#000000;stroke-width:2"
         aria-label="SOFTWARE" /><path
         d="m 84.793729,202.99869 v -2.43164 h 2.431637 v 2.43164 h 3.647457 v -3.64746 h -1.215819 v -1.21582 h -2.431638 v -1.21582 h -1.215818 v -1.21582 h -1.215819 v -2.43163 h 1.215819 v -1.21582 h 6.079093 v 1.21582 h 1.215819 v 2.43163 h -2.431637 v -2.43163 h -3.647457 v 2.43163 h 1.215819 v 1.21582 h 2.431638 v 1.21582 h 1.215818 v 1.21582 h 1.215819 v 3.64746 h -1.215819 v 1.21582 h -6.079093 v -1.21582 z m 9.72655,0 v -9.72655 h 1.215819 v -1.21582 h 6.079092 v 1.21582 h 1.21582 v 9.72655 h -1.21582 v 1.21582 h -6.079092 v -1.21582 z m 2.431637,0 h 3.647454 v -9.72655 h -3.647454 z m 7.294914,1.21582 v -1.21582 h 1.21582 v -9.72655 h -1.21582 v -1.21582 h 8.51073 v 3.64745 h -1.21582 v -1.21581 h -1.21582 v -1.21582 h -2.43164 v 3.64745 h 1.21582 v -1.21582 h 1.21582 v 3.64746 h -1.21582 v -1.21582 h -1.21582 v 4.86328 h 1.21582 v 1.21582 z m 10.94237,-8.51074 v -3.64745 h 7.29491 v 3.64745 h -1.21582 v -1.21581 h -1.21582 v 8.51073 h 1.21582 v 1.21582 h -4.86327 v -1.21582 h 1.21581 v -8.51073 h -1.21581 v 1.21581 z m 8.51073,7.29492 v -10.94237 h 2.43164 v 8.51073 h 1.21582 v -3.64746 h 1.21582 v 3.64746 h 1.21582 v -8.51073 h 2.43163 v 10.94237 h -1.21582 v 1.21582 h -2.43163 v -2.43164 h -1.21582 v 2.43164 h -2.43164 v -1.21582 z m 9.72655,1.21582 v -8.51074 h 1.21582 v -1.21581 h 1.21582 v -1.21582 h 1.21582 v -1.21582 h 1.21582 v 1.21582 h 1.21582 v 1.21582 h 1.21582 v 1.21581 h 1.21581 v 8.51074 h -2.43163 v -4.86328 h -3.64746 v 4.86328 z m 2.43164,-6.0791 h 3.64746 v -2.43164 h -1.21582 v -1.21581 h -1.21582 v 1.21581 h -1.21582 z m 7.29491,6.0791 v -1.21582 h 1.21582 v -9.72655 h -1.21582 v -1.21582 h 7.29491 v 1.21582 h 1.21582 v 3.64745 h -1.21582 v 2.43164 h 1.21582 v 4.86328 h -2.43164 v -4.86328 h -1.21581 v -1.21582 h -1.21582 v 6.0791 z m 3.64746,-7.29492 h 2.43163 v -3.64745 h -2.43163 z m 6.0791,7.29492 v -1.21582 h 1.21581 v -9.72655 h -1.21581 v -1.21582 h 8.51073 v 3.64745 h -1.21582 v -1.21581 h -1.21582 v -1.21582 h -2.43164 v 3.64745 h 1.21582 v -1.21582 h 1.21582 v 3.64746 h -1.21582 v -1.21582 h -1.21582 v 4.86328 h 2.43164 v -1.21582 h 1.21582 v -1.21582 h 1.21582 v 3.64746 z"
         id="text75"
         style="font-size:19.4531px;line-height:1.25;font-family:'PxPlus IBM VGA 8x16';-inkscape-font-specification:'PxPlus IBM VGA 8x16';text-align:center;text-anchor:middle;display:inline;fill:#00ff00;stroke-width:2"
         aria-label="SOFTWARE" /></g></g><g
     inkscape:groupmode="layer"
     id="layer4"
     inkscape:label="Foreground"
     style="display:inline"
     transform="translate(-62.097896,-158.51257)"><path
       style="font-size:10.5833px;line-height:1.25;font-family:'Delta Block';-inkscape-font-specification:'Delta Block';text-align:center;text-anchor:middle;fill:#0000ff;stroke:none;stroke-width:0.5;stroke-dasharray:none"
       d="m 71.4322,177.2703 h -1.7171 l -3.5877,-8.705 h -1.8602 l -1.0318,-2.407 h 5.6991 l 0.9132,2.407 h -1.8601 z m 4.2929,0 h -1.7172 l -4.1235,-11.112 h 1.8997 l 1.6729,4.717 h 1.8222 l -1.5954,-4.717 h 1.8997 l 3.5759,11.112 h -1.7172 l -1.4132,-4.178 h -1.7858 z m 8.9029,-2.048 0.5414,2.048 h -5.1515 l -3.4845,-11.112 h 5.6991 l 0.6363,2.407 h -3.7203 l 0.6862,2.31 h 2.7333 l 0.6042,2.217 h -2.6787 l 0.633,2.13 z m 9.1271,2.048 H 92.038 l -1.7286,-8.705 h -1.8601 l -0.5177,-2.407 h 5.6991 l 0.399,2.407 h -1.8601 z m 4.0039,-2.048 h 1.7508 l -0.8297,-6.657 H 96.82 Z m 0.289,2.048 -2.0398,-2.048 -1.0484,-6.657 1.5205,-2.407 H 98.38 l 2.16,2.407 0.721,6.657 -1.4959,2.048 z m 8.275,-5.276 0.311,5.276 h -1.717 l -0.398,-5.276 -1.14,-2.842 0.679,8.118 h -1.717 l -1.111,-11.112 h 2.849 l 1.151,2.994 0.749,-2.994 h 2.849 l 0.381,11.112 h -1.717 l -0.411,-8.118 z m 5.4,-1.119 h 1.823 l 0.015,-2.31 h -1.86 z m -1.655,6.395 -0.29,-11.112 h 3.8 l 1.844,2.407 -0.054,2.31 -0.928,1.119 0.876,1.098 -0.049,2.13 -1.765,2.048 z m 1.697,-2.048 h 1.751 l 0.015,-2.13 h -1.786 z m 10.505,0 h 1.751 l 0.701,-6.657 h -1.86 z m -0.182,2.048 -1.569,-2.048 0.483,-6.657 2.074,-2.407 h 1.9 l 1.606,2.407 -0.81,6.657 -1.967,2.048 z m 6.01,0 h -1.717 l 1.444,-11.112 h 5.7 l -0.432,2.407 h -3.72 l -0.339,2.31 h 2.734 l -0.379,2.217 h -2.679 z m 12.02,0 h -1.717 l 2.133,-8.705 h -1.861 l 0.551,-2.407 h 5.699 l -0.669,2.407 h -1.86 z m 4.293,0 h -1.717 l 3.179,-11.112 h 1.899 l -1.426,4.717 h 1.822 l 1.504,-4.717 h 1.9 l -3.727,11.112 h -1.717 l 1.333,-4.178 h -1.786 z m 10.249,-2.048 -0.805,2.048 h -5.151 l 3.818,-11.112 h 5.699 l -0.946,2.407 h -3.72 l -0.832,2.31 h 2.734 l -0.853,2.217 h -2.679 l -0.767,2.13 z"
       id="path75"
       aria-label="THE TOMB OF THE" /><path
       style="font-size:14.266px;line-height:1.25;font-family:'Delta Block';-inkscape-font-specification:'Delta Block';text-align:center;text-anchor:middle;fill:#ff0000;stroke:none;stroke-width:0.5;stroke-dasharray:none"
       d="m 67.9767,199.75804 h 2.7197 l 1.6499,-7.103 h -2.6131 z m -0.9331,3.773 -0.9728,3.933 h -2.8354 l 3.8847,-14.809 3.4407,-3.346 h 2.5629 l 1.8358,3.346 -3.2179,14.809 h -2.8354 l 0.9137,-3.933 z m 8.951,3.933 h -2.8353 l 3.8088,-18.155 h 5.1258 l 2.0115,3.346 -0.8688,5.273 -2.7913,3.074 1.2201,6.462 H 78.83 l -1.011,-5.839 h -0.6869 z m 1.8575,-9.536 h 2.6922 l 0.948,-5.273 h -2.6131 z m 11.4023,5.603 0.4801,-3.773 h 2.7197 l -0.4235,3.773 -3.2768,3.933 h -2.8354 l -2.2168,-3.933 1.7103,-10.876 3.0891,-3.346 h 2.563 l 2.1873,3.346 -0.3906,3.48 h -2.6654 l 0.4428,-3.48 h -2.6131 l -1.5471,10.876 z m 6.5879,3.933 H 93.007 l 1.9014,-18.155 h 2.5629 l -0.6125,6.826 h 2.6654 l 0.5098,-6.826 h 2.563 l -1.084,18.155 h -2.8353 l 0.5758,-7.706 h -2.7197 z m 7.0887,0 0.205,-3.933 h 1.388 l 0.486,-10.876 h -1.306 l 0.175,-3.346 h 5.125 l -0.074,3.346 h -1.306 l -0.323,10.876 h 1.388 l -0.087,3.933 z m 12.759,0 h -2.835 l -0.005,-14.809 h -2.613 l 0.049,-3.346 h 7.689 l 0.101,3.346 h -2.613 z m 12.433,-3.933 0.326,3.933 h -8.506 l -0.687,-18.155 h 7.689 l 0.277,3.346 h -5.226 l 0.184,3.48 h 3.998 l 0.273,3.623 h -4.08 l 0.2,3.773 z m 6.941,0 -0.454,-3.773 h 2.72 l 0.511,3.773 -2.303,3.933 h -2.836 l -3.191,-3.933 -0.982,-10.876 2.26,-3.346 h 2.563 l 3.016,3.346 0.471,3.48 h -2.665 l -0.419,-3.48 h -2.613 l 1.146,10.876 z m 10.398,3.933 h -2.836 l -2.338,-14.809 h -2.613 l -0.479,-3.346 h 7.689 l 0.629,3.346 h -2.613 z m 9.198,-14.809 0.414,1.723 h -2.639 l -0.388,-1.723 h -2.613 l 0.732,3.48 h 2.665 l 3.537,3.623 0.907,3.773 -1.89,3.933 h -2.835 l -3.604,-3.933 -0.373,-1.906 h 2.748 l 0.401,1.906 h 2.777 l -0.851,-3.773 h -2.72 l -3.427,-3.623 -0.681,-3.48 1.909,-3.346 h 2.563 z"
       id="path76"
       aria-label="ARCHITECTS" /></g><g
     inkscape:groupmode="layer"
     id="layer3"
     inkscape:label="Maze decoration"
     style="display:inline"
     transform="translate(-62.097896,-158.51257)"><path
       id="path77"
       style="font-size:10.5833px;line-height:1.25;font-family:'Delta Block';-inkscape-font-specification:'Delta Block';text-align:center;text-anchor:middle;display:inline;fill:#000000;fill-opacity:0.318119;stroke:none;stroke-width:0.5;stroke-dasharray:none"
       d="m 66.586117,166.1583 -1.97404,1.96577 -0.915707,-0.8909 0.571025,1.33222 h 1.859835 l 0.147278,0.3576 2.688724,-2.68873 -0.02894,-0.076 z m 3.298506,0 0.01344,0.0367 0.167432,0.16743 0.615466,0.61495 -0.359151,0.35915 0.666109,1.79473 1.366325,-1.36633 -0.569991,-1.60662 z m 4.898926,0 0.763261,0.76326 -1.19941,1.19941 0.931726,2.75435 H 74.57891 l 3.372921,3.37344 0.346749,0.34675 -1.167887,-3.62923 -1.583883,-1.58389 0.81287,-0.81287 -0.77618,-2.41122 z m 1.749764,0 0.534334,1.70326 0.884184,-0.88419 -0.803568,-0.81907 z m 3.060795,0 0.819072,0.81907 -1.21388,1.21388 -1.219047,1.21905 0.604098,0.57051 0.60358,0.5705 0.424781,-0.42478 -0.464055,-1.56114 h 2.025716 l 1.340487,-1.34049 -0.282153,-1.0666 z m 8.337476,0 0.101285,0.47026 0.470256,-0.47026 z m 2.920752,0 -2.403471,2.40399 5.17e-4,0.003 h 1.859834 l 0.09922,0.49816 0.911572,-0.91157 0.946713,0.94671 -0.09715,-0.5333 h 1.860351 l -0.01034,-0.0631 -0.322461,-0.32246 -2.022099,-2.02158 z m 5.62808,0 -0.887801,1.40457 0.593245,0.58911 1.823145,-1.78956 0.206705,-0.20412 z m 4.749584,0 0.24133,2.41329 1.39836,1.39836 0.63045,0.63046 -0.12092,-1.44798 0.88883,2.21537 0.41962,0.41961 -0.17932,0.17932 0.0109,0.0274 0.17002,2.25309 1.20096,-1.20096 0.46767,-0.46767 -0.0346,-0.58446 0.19378,-0.72605 -2.47271,-2.47272 -2.63705,-2.63705 z m 2.63808,0 0.34261,0.3421 -0.13177,-0.3421 z m 2.11098,0 -0.42271,1.68827 1.47846,1.47795 0.046,-0.17209 0.0119,0.22996 1.20251,1.20251 0.709,0.709 -0.0873,-2.54816 -2.58744,-2.58744 z m 2.69958,0 0.15451,0.15503 -0.005,-0.15503 z m 1.09916,0 0.0294,1.12913 1.89963,1.89963 -0.006,-0.62167 h 1.85984 l -0.015,2.30993 h -0.15089 l 1.07848,1.07849 0.89452,-1.07849 0.0109,-0.47749 -1.01544,-1.01544 0.95343,-0.95343 -1.06712,-1.39371 -1.11672,1.11673 -1.81798,-1.81798 -0.1757,-0.1757 z m 15.08125,0 -0.20413,0.20412 -3.76669,3.7667 -0.19224,2.65358 1.96577,-1.96577 0.19999,-2.25154 h 1.86035 l -0.0227,0.21394 1.21439,-1.2144 5.2e-4,-5.1e-4 -0.93845,-1.40612 z m 4.88652,0 -2.20917,2.22054 -0.3545,2.72748 2.13114,-2.13114 0.0599,-0.40979 h 0.34985 l 0.41341,-0.41341 0.41341,0.41341 h 2.42725 l -0.40205,-0.41341 -1.20767,-1.23042 0.76326,-0.76326 z m 9.65574,0 -0.22996,0.22996 -0.49816,2.17713 h 0.78238 l 2.40709,-2.40709 z m 4.92218,0 -1.40663,1.40663 -1.81798,1.81746 0.85731,0.85731 0.4377,-1.67431 h 1.86035 l 0.6687,-2.40709 z m 3.19981,0 0.19171,0.18862 0.0568,-0.18862 z m 2.1487,0 -0.51418,1.6123 0.38706,0.38138 2.02158,-1.99368 z m 4.32739,0 -2.01022,2.01073 -0.24081,0.24081 -1.25884,3.66334 0.25787,-0.25786 1.20251,-1.20303 0.61495,0.61598 0.61546,0.61547 -1.2485,1.2485 h 2.46083 l 0.046,-0.046 0.0455,0.046 h 0.11989 l 0.85318,-2.21692 h -2.7342 l 0.51625,-1.43402 -0.0589,-0.0589 0.12558,-0.12557 0.24908,-0.69143 h 0.44235 l 0.41341,-0.41341 1.22525,-1.22473 -0.60978,-0.58757 -0.18811,-0.18138 z m 3.22771,0 0.71365,0.71365 0.28008,-0.71365 z m -11.5161,0.56534 -0.54725,1.91306 1.4273,1.4273 0.57103,-1.88929 -0.006,-0.006 z m 12.0928,0.49609 -1.34513,1.34566 h 0.81648 z m -58.380928,0.10026 -0.859896,0.85989 -0.385506,0.38551 h 0.502812 l 0.217041,1.74098 1.652607,-1.65262 -0.01,-0.0884 z m -29.782678,0.69814 -0.547254,0.54726 h 0.754993 z m -1.339453,1.33946 -1.307931,1.30793 0.718302,1.74304 1.287777,-1.28777 z m 58.174229,0.0868 -2.06344,2.07068 -0.27802,2.63963 2.01331,-2.01331 z m 22.10304,0.14573 -0.40979,1.28519 h -0.76585 l 1.93787,1.93839 1.00666,-3.00292 -0.77412,0.77411 z m -53.454617,0.016 0.439249,2.78898 0.623218,0.62322 1.105876,-1.1064 -0.303858,-2.15697 -0.857828,0.85731 z m 14.746907,0.093 0.0661,2.52698 1.81746,1.81797 -0.009,-0.95188 h 1.51825 l -2.50734,-2.50734 z m 34.75498,0.8201 -0.53175,1.85777 0.0258,0.0258 1.35444,1.35444 0.20102,-0.66508 h 1.49396 l -1.25935,-1.27124 z m -72.713907,0.093 -0.273368,0.2713 1.098124,2.959 0.40566,0.40617 -0.186035,0.18604 0.63562,1.71307 1.281058,-1.28106 -0.629418,-1.77457 h 0.190169 l -0.703833,-0.69504 z m 19.408634,0 -0.504362,0.50436 0.398942,2.0066 0.04909,-0.0491 2.104264,2.07222 -0.553454,-3.03909 z m 48.680233,0.13178 -0.67748,2.76365 1.72031,-1.72031 -0.58704,-0.58704 z m -39.21001,0.1297 -1.555977,1.55702 -0.0646,0.0646 0.340031,2.72697 H 98.38986 l 0.228927,0.22892 1.20251,1.20251 -0.614949,0.61495 -0.0016,0.002 h 0.560173 l 1.297079,-1.77508 -1.240752,-1.24644 1.200442,-1.23403 z m -19.464961,0.002 -2.142505,2.14303 -0.726054,-0.72606 1.124479,3.58583 1.39268,1.39216 h 2.460832 l -0.0016,-0.002 -2.046386,-2.04638 h -0.26045 l -0.110071,-0.37052 -0.603063,-0.60307 0.326595,-0.32659 -0.246497,-0.82993 h 1.07642 l 1.259355,-1.25935 -0.260966,-0.95757 z m 48.548971,0 -3.05976,3.05977 -0.36535,2.80861 1.28778,-1.29243 0.73587,-0.74 0.23719,-1.61903 h 1.37305 l 1.57716,-1.58595 0.108,-0.63097 z m -28.12955,0.43047 0.0884,0.88263 0.39326,-0.40101 z m 1.9389,1.4857 -0.22686,0.22686 -1.23041,1.23041 1.72341,1.72341 z m -34.008256,0.0393 -1.270207,1.26091 0.710034,1.72289 1.247469,-1.24747 z m 38.591956,0.18759 -0.58756,0.58704 -0.35553,0.35553 0.0248,0.48783 1.82573,1.82625 -0.0832,-2.43241 z m 43.65419,0.0842 -1.76165,1.76113 -0.95808,0.95808 -0.49765,1.44849 h 2.63498 l -0.56379,-0.56069 1.48725,-1.48724 h -1.10432 z m -4.53203,0.21239 -0.56999,1.788 0.3204,0.3204 0.58704,-0.58756 0.58756,-0.58705 z m -33.86046,0.0429 -0.0129,1.86449 h -0.58395 l 1.25419,1.25418 1.08056,-1.25418 0.003,-0.12351 z m 8.89299,0.15296 -1.81746,1.82366 1.01906,1.33016 1.44229,-1.44229 h -0.79581 z m -24.82587,0.55811 -0.179834,0.17983 0.238745,0.23875 z m 7.09311,0.18138 0.20102,2.66186 0.3576,0.35811 h 1.38596 l -0.0672,-1.14256 z m 38.85706,0.0408 -0.54726,1.91358 1.06609,1.06556 h 0.34571 l 0.49145,-1.62367 -0.19534,-0.19534 z m -2.68976,0.15451 -1.603,1.61489 -0.73949,0.74776 -0.11318,0.46198 h 1.71721 z m -30.85393,0.30799 0.063,2.41226 0.0749,0.0749 0.0295,0.0294 h 2.34921 l -1.81901,-1.81901 z m 15.80368,0.18965 -0.50797,0.50798 -1.81902,1.81901 h 0.32557 l 1.96732,-2.04793 z m -41.958158,0.27906 1.0604,1.06091 -0.280603,-1.06091 z m 70.562618,0.20102 -0.61495,0.61495 -0.61547,0.61546 0.6165,0.6165 h 0.0584 l 0.67748,-1.72496 z m -77.573043,0.0599 0.604614,1.78697 h 1.182357 z m 14.920536,0.37827 0.27957,1.4087 h 1.12913 z m -20.697961,0.46871 -0.939994,0.93999 h 1.312064 z m 4.456576,0.35347 -0.586011,0.58652 h 0.794267 z m 26.769942,0.0413 0.0543,0.54518 h 0.48834 z m 43.93737,0.24339 -0.0961,0.30179 h 0.39791 z m -38.74337,0.0734 0.0114,0.22841 h 0.21704 z m 40.41045,0.0904 -0.13746,0.13797 h 0.0915 z"
       sodipodi:nodetypes="cccccccccccccccccccccccccccccccccccccccccccccccccccccccccccccccccccccccccccccccccccccccccccccccccccccccccccccccccccccccccccccccccccccccccccccccccccccccccccccccccccccccccccccccccccccccccccccccccccccccccccccccccccccccccccccccccccccccccccccccccccccccccccccccccccccccccccccccccccccccccccccccccccccccccccccccccccccccccccccccccccccccccccccccccccccccccccccccccccccccccccccccccccccccccccccccccccccccccccccccccccccccccccccccccccccccccccccccccccccccccccccccccccc" /><path
       id="path220"
       style="font-size:10.5833px;line-height:1.25;font-family:'Delta Block';-inkscape-font-specification:'Delta Block';text-align:center;text-anchor:middle;display:inline;fill:#000000;fill-opacity:0.318119;stroke:none;stroke-width:0.5;stroke-dasharray:none"
       d="m 70.560551,189.30915 -3.440617,3.34605 -0.19482,0.74259 2.553332,-2.55281 1.535824,-1.53583 z m 7.058484,0 1.591634,1.59164 1.754415,1.75441 h 0.527099 l -0.0801,0.447 0.237195,0.2372 1.185457,-1.21905 0.586528,-0.60306 -0.911573,-1.51671 -0.289904,0.27389 -0.609782,0.57619 -1.534274,-1.54151 z m 10.882023,0 -2.915068,3.15743 0.867648,0.86713 1.817977,-1.81746 1.81746,-1.81797 -0.389124,-0.38913 z m 8.501807,0 0.429947,0.42375 0.03824,-0.42375 z m 3.031335,0 -0.0129,0.17002 0.17364,-0.17002 z m 1.85881,0 0.66404,0.66404 0.0398,-0.66404 z m 1.98592,0 -0.0987,1.88671 3.34036,3.34036 0.4346,0.4346 0.0682,-2.30167 -0.53071,-0.53226 -2.81482,-2.82774 z m 2.82463,0 2.25051,2.25051 0.0501,-2.25051 z m 4.92167,0 1.56373,1.56373 1.56373,-1.56373 z m 5.56968,0 -0.38137,0.37776 -2.42207,2.38848 1.07952,1.07952 -0.008,-0.49971 h 1.85725 l -0.55191,-0.5519 1.25316,-1.25316 -0.0465,-1.54099 z m 2.06086,0 0.0114,0.29559 0.29559,-0.29559 z m 2.76831,0 -2.66754,2.66754 0.0103,0.26355 2.29599,2.29598 0.45682,0.45682 -0.12351,-2.33784 h 0.2465 l -0.55191,-0.5519 2.78381,-2.79415 z m 4.81004,0 -2.79415,2.79415 0.55191,0.5519 h 2.46083 l -0.5519,-0.5519 0.62425,-0.62374 -0.17984,-2.17041 z m 4.14341,0 4.02508,4.02456 1.68569,1.68569 -0.3204,-2.3642 -3.01583,-3.34605 z m 6.21823,0 0.22944,1.60404 0.59738,0.60875 1.11983,1.13326 h 1.14567 l 0.0279,0.1757 1.34256,-1.34255 1.85105,-1.85157 -0.34624,-0.32763 h -1.74666 l -0.35657,0.34985 -1.21388,1.19166 -0.60409,-0.57051 -0.60979,-0.57619 0.39481,-0.39481 z m 11.53315,0 -0.0403,0.0703 0.0703,-0.0703 z m 1.71307,0 3.99666,3.99666 0.49712,0.49712 -0.27595,-1.14773 -3.36775,-3.34605 z m -77.193738,0.22686 -2.53938,2.53938 -0.579809,0.57981 h 2.217435 l -0.0739,0.31729 1.847433,-1.84691 z m 21.632788,0.032 -0.23306,2.22829 0.307474,0.30696 -0.379305,0.3793 -0.287837,2.74867 0.07958,-0.0796 2.833419,-2.83342 0.03514,-0.39481 z m 53.57606,0.21704 -0.89349,1.56735 2.02158,2.02158 -0.15141,-0.71882 h 1.89343 z m -38.18733,0.62942 -0.0326,2.24069 h 2.27325 l -0.55191,-0.5519 z m -18.466578,0.0253 -2.231388,2.21537 h 1.066601 l -0.190169,1.49397 2.285649,-2.28514 z m 53.305788,0.0589 -2.15646,2.15646 h 2.46084 l 0.0847,-0.0853 z m -68.387555,0.37414 -0.103353,0.10335 -0.65319,3.11403 0.756543,-0.75655 0.615467,0.61495 0.614949,0.61547 -2.640149,2.64066 -0.65319,3.11403 3.387907,-3.38791 0.771529,-3.96152 -0.250631,-0.25063 z m 24.274485,0 -1.165818,1.16582 -0.198437,2.65927 1.364255,-1.36426 1.28416,1.28416 0.13849,-2.32234 z m 29.14034,0.0558 -1.20251,1.20251 -0.15606,0.15606 -0.24856,0.36794 0.39067,4.32842 2.99362,2.99361 -0.28991,-2.75125 -2.71766,-2.71766 1.20251,-1.20251 1.20251,-1.20251 -0.58705,-0.58705 z m -55.184226,1.71359 -3.389974,3.38998 -0.744657,3.206 1.066085,-1.06608 2.398303,-2.39831 0.677478,-3.11867 z m 67.956576,0.0568 -0.0196,0.0196 -2.23759,2.23708 0.33538,2.12545 2.28462,-2.28462 z m -30.05863,0.29558 0.001,2.46187 2.69648,2.69699 -0.0382,-2.49959 z m -43.246973,0.18656 -3.553272,3.55378 -0.874882,3.33572 3.619934,-3.61994 z m 77.536873,0.15244 -0.15658,0.15503 0.50901,2.60243 0.85008,0.85007 1.20251,1.20303 0.61495,-0.61547 0.61546,-0.61598 -1.81229,-1.78904 z m -63.156873,0.0656 -3.196187,3.18172 -0.242362,1.3472 h -1.111044 l -2.689241,2.67684 -2.71353,2.70475 -0.641821,3.05976 0.933276,-0.92656 2.563668,-2.55126 0.246497,-1.26659 h 0.68678 l 0.04961,0.28783 1.314132,-1.30793 0.614949,0.61495 0.615467,0.61547 -2.180229,2.18023 0.350883,2.02623 0.609782,-0.61547 1.753898,-1.76475 -0.502295,-2.65927 0.759643,-0.83612 -0.791682,-0.79168 1.81746,-1.81798 1.277958,-1.27796 z m 68.273353,0.185 0.1788,0.79375 h 0.61495 z m -59.150912,0.36897 -0.58291,0.58291 -1.598869,1.59887 h 1.93735 z m -7.968506,0.44907 -0.329179,2.09548 0.443384,0.44338 1.202511,1.20303 0.921907,-0.92191 0.396358,-2.78742 -1.296044,1.28157 -1.213363,-1.19114 z m 19.777608,0.38912 -0.10542,2.35542 2.25567,2.25567 0.3483,0.3483 0.0713,-2.39003 -0.41962,-0.41962 z m 14.54898,0.006 0.0925,2.44222 0.90434,0.90434 0.58704,-0.58756 0.58756,-0.58704 z m 14.55053,0.009 0.1602,1.3286 h 1.1684 z m -37.044248,0.0925 -2.042253,2.04225 -0.914156,0.91416 -0.287838,2.74919 3.047359,-3.04788 1.421619,-1.42162 h -1.335836 z m 4.081918,0.83974 -3.047873,3.0484 -0.971,0.971 h 2.220536 l -0.01033,0.13901 1.752867,-1.75287 1.01286,1.01286 0.13901,-2.32234 z m 22.2095,0.39636 0.83457,0.83458 -1.20251,1.20251 -1.20251,1.20251 0.6966,0.6966 -0.0165,-0.31316 h 2.08772 l -0.36277,-0.38344 1.20252,-1.2361 0.95704,-0.97565 -0.0403,-0.53589 -0.49195,-0.49196 z m 29.08453,0 0.83457,0.83458 -1.20251,1.20251 -1.20251,1.20251 0.38396,0.38344 h 1.69344 l 0.35553,-0.35554 1.20251,-1.20251 2.08411,2.08411 -0.12661,-0.52606 -3.53725,-3.62304 z m -8.72453,0.68523 -0.14521,0.14366 -2.16783,2.15439 0.33435,2.1177 2.33784,-2.33784 z m -30.76918,1.09347 5.1e-4,2.3549 0.33642,0.33641 0.58756,-0.58756 0.58704,-0.58704 z m -28.378633,0.71107 -0.334347,2.12649 2.393653,2.39365 0.434598,-3.05356 -0.513663,0.51366 -1.202511,-1.20251 z m -10.874789,0.29301 -1.099674,1.09967 -3.513997,3.514 h 0.835091 l -0.49196,2.1177 3.586861,-3.58686 z m 31.110242,0.478 -0.10542,2.35593 3.69177,3.69125 0.34416,0.34417 0.0496,-2.25568 h -1.38803 l 0.0444,-1.49913 -0.2248,-0.2248 z m 21.71909,0.0517 -0.31057,0.31058 h 0.33383 z m -58.405219,0.12402 -2.207617,2.20814 0.61495,0.61495 0.615466,0.61546 3.251998,-3.25199 h -2.320789 z m 61.131149,0.006 0.2434,2.69389 0.76688,0.76688 2.43913,2.43861 0.58704,-0.62063 0.58188,-0.61547 -0.70125,-0.709 h -0.7829 l -0.0935,-0.88625 -1.43712,-1.45314 z m -37.043213,0.18087 -2.722315,2.72231 -0.133842,1.0511 h -2.335258 l 2.787944,2.78794 1.119311,-1.34307 -0.737422,-0.73587 0.615466,-0.61495 0.615466,-0.61547 0.624768,0.62477 0.08578,-0.10335 0.423747,-3.77341 z m 44.505813,0 0.2036,0.2036 0.62167,0.62167 -0.11162,-0.82527 z m -1.94459,0.51624 0.33693,2.79828 1.95596,1.95596 0.87643,-1.49707 -0.0139,-0.1018 -2.23759,-2.23759 z m -38.18733,0.032 -1.529106,1.52911 0.587045,0.58704 0.587561,0.58756 0.12299,-0.12299 z m 19.09961,0.2527 -0.63304,0.63304 -1.81797,1.81797 -0.27957,-0.27957 5.1e-4,2.46135 0.27906,0.27906 2.48822,-2.48822 z m -14.58826,0.046 -1.817458,1.81746 -0.134358,0.13436 -0.234095,3.13314 1.598871,1.59887 0.17518,0.17519 h 0.92914 l 0.0863,-1.44539 -1.778183,-1.77819 0.615463,-0.61495 0.61495,-0.61547 0.68627,0.68833 0.1328,-2.22157 z m 19.46445,0 -0.74879,0.74879 0.0858,2.26343 0.6072,-0.6072 2.43292,2.43293 2.02107,2.02107 H 125.69 l 0.81081,-0.79634 1.23041,-1.19682 0.60152,0.59324 -0.20981,-2.53266 h -0.96532 l -0.67334,0.69246 -1.18597,1.21905 -1.91152,-1.91151 h -0.81597 l -0.0455,-0.86145 z m 33.95038,0 -0.46664,0.46664 0.44287,1.96216 0.0238,-0.0238 1.2361,-1.2361 -0.61495,-0.58187 z m -10.07122,0.36742 -2.06602,2.0376 -0.41238,-0.39015 0.43718,2.77037 1.79317,-1.79317 0.59842,-0.5979 z m 4.23333,0.65268 0.37311,1.90634 0.0636,0.0698 1.76578,-1.76578 -0.21032,-0.21032 z m -55.070537,1.11052 -0.232544,2.22416 2.50424,2.50424 h 0.06821 l 0.195854,-2.1823 z m -29.060758,0.13126 -0.504362,1.92133 2.242757,2.23449 0.479557,-1.93787 z m 19.607072,0.14314 -0.314193,0.3142 -0.03256,0.20722 2.056722,3.64939 0.283187,0.28319 h 2.460831 z m 72.823463,0 -1.23093,1.23042 -1.23042,1.23042 -0.61495,-0.61495 -0.61547,-0.61547 0.709,-0.709 h -2.1673 l -0.0414,-0.19637 -0.90537,0.90537 1.20251,1.2361 1.20251,1.22473 -0.58704,0.58756 -0.10645,0.10646 0.063,0.0687 h 2.30115 l 1.01493,-1.00098 1.40921,-2.9316 -0.0372,-0.15555 z m -53.73626,0.52142 -0.0775,1.49138 2.43293,2.4412 h 2.38486 l -3.94498,-3.93258 z m -30.875114,1.54306 -2.396753,2.38952 h 1.877404 z m 72.791934,0.0227 -0.34571,0.34571 -2.02158,2.02107 h 2.46135 l 0.26871,-0.26872 z m -29.39407,0.30954 -2.05775,2.05724 h 2.08928 z m 4.74597,0.0641 -0.51728,0.51728 0.0558,1.47588 h 2.45411 z m 14.59807,0 -1.23041,1.19682 -0.81132,0.79634 h 2.5771 l 0.5457,-0.93173 z m -53.665973,0.25114 -0.336413,0.33642 -1.405599,1.4056 h 2.070674 z m -5.048787,0.23875 -1.503267,1.50327 h 1.210262 z m -12.846244,0.71675 -0.206189,0.78652 h 0.992704 z m 29.595092,0.50333 -0.02945,0.28319 h 0.313159 z m -24.101888,0.16071 -0.02842,0.12248 h 0.144178 z m 34.00206,0.0145 -0.006,0.10801 h 0.11369 z"
       sodipodi:nodetypes="cccccccccccccccccccccccccccccccccccccccccccccccccccccccccccccccccccccccccccccccccccccccccccccccccccccccccccccccccccccccccccccccccccccccccccccccccccccccccccccccccccccccccccccccccccccccccccccccccccccccccccccccccccccccccccccccccccccccccccccccccccccccccccccccccccccccccccccccccccccccccccccccccccccccccccccccccccccccccccccccccccccccccccccccccccccccccccccccccccccccccccccccccccccccccccccccccccccccccccccccccccccccccccccccccccccccccccccccccccccccccccccccccccccccccccccccccccccccccccccccccccccccccccccccccccccccccccccccccccccccccccccccccccccccccccccccccccccccccccccccccc" /></g><g
     inkscape:groupmode="layer"
     id="layer2"
     inkscape:label="Overlay"
     style="display:inline"
     transform="translate(-62.097896,-158.51257)"><path
       style="font-size:14.266px;line-height:1.25;font-family:'Delta Block';-inkscape-font-specification:'Delta Block';text-align:center;text-anchor:middle;display:inline;fill:url(#linearGradient82);stroke:none;stroke-width:0.5;stroke-dasharray:none"
       d="m 67.9767,199.75804 h 2.7197 l 1.6499,-7.103 h -2.6131 z m -0.9331,3.773 -0.9728,3.933 h -2.8354 l 3.8847,-14.809 3.4407,-3.346 h 2.5629 l 1.8358,3.346 -3.2179,14.809 h -2.8354 l 0.9137,-3.933 z m 8.951,3.933 h -2.8353 l 3.8088,-18.155 h 5.1258 l 2.0115,3.346 -0.8688,5.273 -2.7913,3.074 1.2201,6.462 H 78.83 l -1.011,-5.839 h -0.6869 z m 1.8575,-9.536 h 2.6922 l 0.948,-5.273 h -2.6131 z m 11.4023,5.603 0.4801,-3.773 h 2.7197 l -0.4235,3.773 -3.2768,3.933 h -2.8354 l -2.2168,-3.933 1.7103,-10.876 3.0891,-3.346 h 2.563 l 2.1873,3.346 -0.3906,3.48 h -2.6654 l 0.4428,-3.48 h -2.6131 l -1.5471,10.876 z m 6.5879,3.933 H 93.007 l 1.9014,-18.155 h 2.5629 l -0.6125,6.826 h 2.6654 l 0.5098,-6.826 h 2.563 l -1.084,18.155 h -2.8353 l 0.5758,-7.706 h -2.7197 z m 7.0887,0 0.205,-3.933 h 1.388 l 0.486,-10.876 h -1.306 l 0.175,-3.346 h 5.125 l -0.074,3.346 h -1.306 l -0.323,10.876 h 1.388 l -0.087,3.933 z m 12.759,0 h -2.835 l -0.005,-14.809 h -2.613 l 0.049,-3.346 h 7.689 l 0.101,3.346 h -2.613 z m 12.433,-3.933 0.326,3.933 h -8.506 l -0.687,-18.155 h 7.689 l 0.277,3.346 h -5.226 l 0.184,3.48 h 3.998 l 0.273,3.623 h -4.08 l 0.2,3.773 z m 6.941,0 -0.454,-3.773 h 2.72 l 0.511,3.773 -2.303,3.933 h -2.836 l -3.191,-3.933 -0.982,-10.876 2.26,-3.346 h 2.563 l 3.016,3.346 0.471,3.48 h -2.665 l -0.419,-3.48 h -2.613 l 1.146,10.876 z m 10.398,3.933 h -2.836 l -2.338,-14.809 h -2.613 l -0.479,-3.346 h 7.689 l 0.629,3.346 h -2.613 z m 9.198,-14.809 0.414,1.723 h -2.639 l -0.388,-1.723 h -2.613 l 0.732,3.48 h 2.665 l 3.537,3.623 0.907,3.773 -1.89,3.933 h -2.835 l -3.604,-3.933 -0.373,-1.906 h 2.748 l 0.401,1.906 h 2.777 l -0.851,-3.773 h -2.72 l -3.427,-3.623 -0.681,-3.48 1.909,-3.346 h 2.563 z"
       id="path81"
       aria-label="ARCHITECTS" /><path
       style="font-size:10.5833px;line-height:1.25;font-family:'Delta Block';-inkscape-font-specification:'Delta Block';text-align:center;text-anchor:middle;display:inline;fill:url(#linearGradient85);stroke:none;stroke-width:0.5;stroke-dasharray:none"
       d="m 71.4322,177.2703 h -1.7171 l -3.5877,-8.705 h -1.8602 l -1.0318,-2.407 h 5.6991 l 0.9132,2.407 h -1.8601 z m 4.2929,0 h -1.7172 l -4.1235,-11.112 h 1.8997 l 1.6729,4.717 h 1.8222 l -1.5954,-4.717 h 1.8997 l 3.5759,11.112 h -1.7172 l -1.4132,-4.178 h -1.7858 z m 8.9029,-2.048 0.5414,2.048 h -5.1515 l -3.4845,-11.112 h 5.6991 l 0.6363,2.407 h -3.7203 l 0.6862,2.31 h 2.7333 l 0.6042,2.217 h -2.6787 l 0.633,2.13 z m 9.1271,2.048 H 92.038 l -1.7286,-8.705 h -1.8601 l -0.5177,-2.407 h 5.6991 l 0.399,2.407 h -1.8601 z m 4.0039,-2.048 h 1.7508 l -0.8297,-6.657 H 96.82 Z m 0.289,2.048 -2.0398,-2.048 -1.0484,-6.657 1.5205,-2.407 H 98.38 l 2.16,2.407 0.721,6.657 -1.4959,2.048 z m 8.275,-5.276 0.311,5.276 h -1.717 l -0.398,-5.276 -1.14,-2.842 0.679,8.118 h -1.717 l -1.111,-11.112 h 2.849 l 1.151,2.994 0.749,-2.994 h 2.849 l 0.381,11.112 h -1.717 l -0.411,-8.118 z m 5.4,-1.119 h 1.823 l 0.015,-2.31 h -1.86 z m -1.655,6.395 -0.29,-11.112 h 3.8 l 1.844,2.407 -0.054,2.31 -0.928,1.119 0.876,1.098 -0.049,2.13 -1.765,2.048 z m 1.697,-2.048 h 1.751 l 0.015,-2.13 h -1.786 z m 10.505,0 h 1.751 l 0.701,-6.657 h -1.86 z m -0.182,2.048 -1.569,-2.048 0.483,-6.657 2.074,-2.407 h 1.9 l 1.606,2.407 -0.81,6.657 -1.967,2.048 z m 6.01,0 h -1.717 l 1.444,-11.112 h 5.7 l -0.432,2.407 h -3.72 l -0.339,2.31 h 2.734 l -0.379,2.217 h -2.679 z m 12.02,0 h -1.717 l 2.133,-8.705 h -1.861 l 0.551,-2.407 h 5.699 l -0.669,2.407 h -1.86 z m 4.293,0 h -1.717 l 3.179,-11.112 h 1.899 l -1.426,4.717 h 1.822 l 1.504,-4.717 h 1.9 l -3.727,11.112 h -1.717 l 1.333,-4.178 h -1.786 z m 10.249,-2.048 -0.805,2.048 h -5.151 l 3.818,-11.112 h 5.699 l -0.946,2.407 h -3.72 l -0.832,2.31 h 2.734 l -0.853,2.217 h -2.679 l -0.767,2.13 z"
       id="path82"
       aria-label="THE TOMB OF THE" /></g></svg>
