<?xml version="1.0" encoding="UTF-8" standalone="no"?>
<!-- Created with Inkscape (http://www.inkscape.org/) -->

<svg
   width="56.597248mm"
   height="56.59726mm"
   viewBox="0 0 56.597248 56.59726"
   version="1.1"
   id="svg1"
   inkscape:version="1.4 (86a8ad7, 2024-10-11)"
   sodipodi:docname="logo.svg"
   xml:space="preserve"
   xmlns:inkscape="http://www.inkscape.org/namespaces/inkscape"
   xmlns:sodipodi="http://sodipodi.sourceforge.net/DTD/sodipodi-0.dtd"
   xmlns="http://www.w3.org/2000/svg"
   xmlns:svg="http://www.w3.org/2000/svg"><sodipodi:namedview
     id="namedview1"
     pagecolor="#ffffff"
     bordercolor="#666666"
     borderopacity="1.0"
     inkscape:showpageshadow="2"
     inkscape:pageopacity="0.0"
     inkscape:pagecheckerboard="0"
     inkscape:deskcolor="#d1d1d1"
     inkscape:document-units="mm"
     inkscape:zoom="2.8284271"
     inkscape:cx="401.81343"
     inkscape:cy="695.6163"
     inkscape:window-width="1920"
     inkscape:window-height="1017"
     inkscape:window-x="1912"
     inkscape:window-y="-8"
     inkscape:window-maximized="1"
     inkscape:current-layer="layer3"><inkscape:page
       x="0"
       y="0"
       width="56.597248"
       height="56.59726"
       id="page2"
       margin="0"
       bleed="0" /></sodipodi:namedview><defs
     id="defs1" /><g
     inkscape:groupmode="layer"
     id="layer5"
     inkscape:label="Maze"
     style="display:inline"
     transform="translate(-82.429504,-158.51257)"><g
       transform="matrix(0.00221083,0.00221083,0.00221083,-0.00221083,82.429508,186.81121)"
       fill="#000000"
       stroke="none"
       id="g5"
       style="display:inline;fill:#ff00ff;fill-opacity:0.168741;stroke-width:11.2832"><path
         d="m 0,12260 v -540 h 535 c 294,0 537,0 540,0 3,0 6,145 6,323 v 322 H 758 435 l -3,-107 -3,-108 h 221 220 v -110 -110 H 545 220 v 325 325 h 540 540 v -1085 -1085 h 325 325 v 545 545 h -105 -105 v -435 -435 h -110 -110 v 545 546 l 323,-3 322,-3 3,-217 2,-218 h 325 325 v 325 325 h -110 -110 v -215 -215 h -105 -105 v 325 325 h 325 325 v -435 -435 h 105 105 v 545 545 h -753 c -415,0 -756,-2 -758,-4 -2,-2 -3,-52 -1,-110 l 3,-106 h 215 214 v -110 -110 h -325 -325 v 325 325 h 975 975 v -1190 -1190 l -432,-2 -433,-3 -3,-322 -2,-323 h 870 870 v -435 -435 h 325 325 v 105 105 h -215 -215 v 110 110 h 325 325 v -215 -215 h 215 215 v -435 -435 h 545 545 l -2,1193 -3,1192 -542,3 -543,2 v -110 -110 h 435 435 v -975 -975 h -325 -325 l -2,431 -3,430 -215,2 -215,2 -3,218 -2,217 h -430 -430 l -2,865 -3,866 h -323 -323 v -323 -323 l 106,-3 105,-3 v 221 220 h 110 110 v -545 -545 h -110 -110 v 220 221 l -106,-3 -105,-3 -2,-215 -2,-215 -542,-3 -543,-2 v 110 110 h 435 435 v 650 650 h 650 650 v 545 545 l -540,-2 -541,-3 v -323 -323 h 323 323 l 3,106 3,105 h -221 -220 v 110 110 h 325 325 v -325 -325 h -540 -540 v 540 540 h 760 760 v -650 -650 h 105 105 l 2,218 3,217 215,2 215,2 3,326 2,325 h -110 -110 v -220 -221 l -107,3 -108,3 -3,323 -2,322 h 325 325 v -215 -215 h 980 981 l -3,108 -3,107 -867,3 -868,2 v 105 105 h 975 975 v -215 -215 h 110 110 v 215 215 h 1845 1845 v -325 -325 H 11065 9980 v -107 -108 h 1082 1083 l 3,-217 2,-218 h 110 110 v 650 650 h 105 105 v -760 -760 l -322,2 -323,3 -3,218 -2,217 H 10845 9760 v 325 325 h 1085 1085 v 110 110 H 10305 8680 v -110 -110 h 435 435 v -435 -435 h 650 650 v -325 -325 h -545 -545 v 110 110 h 435 435 v 105 105 l -540,2 -540,3 v -328 -327 l 755,2 756,3 -1,433 v 432 h 330 330 v -540 -540 h -110 -110 v 430 430 h -110 -110 v -430 -430 h -865 -865 v -110 -110 h 1190 1190 v 435 435 h 325 325 v -325 -325 h -105 -105 v 215 215 h -110 -110 v -325 -325 h 215 215 v -325 -325 l -430,-2 -430,-3 -3,-430 -2,-430 -217,-3 -218,-2 v -436 -435 l -107,3 -108,3 v 540 540 l 217,3 218,2 v 105 105 l -217,2 -218,3 v 325 325 l 108,3 107,3 v -221 -220 h 110 110 v 220 220 h 435 435 v 105 105 h -760 -760 v -215 -215 h -110 -110 v 215 215 h -540 -540 v -650 -650 h -870 -870 v -325 -325 h 110 110 v 215 215 h 105 105 v -215 -215 h 1195 1195 v 435 435 h -110 -110 v -325 -325 h -975 -975 v 105 105 h 650 650 l 2,653 3,652 323,3 322,2 v -110 -110 h -215 -215 v -545 -546 l 108,3 107,3 3,433 2,432 h 105 104 l 3,-107 3,-108 108,-3 107,-3 v 111 110 h 110 110 V 7810 6510 l 433,-2 432,-3 v -647 -648 h 218 217 V 4885 4560 H 10955 9760 v 650 650 h -540 -540 v -110 -110 h 215 215 v -215 -215 h 110 110 v 215 215 h 110 110 v -540 -540 h -110 -110 v 215 215 H 9220 9110 V 4120 3250 H 6835 4560 v 110 110 h 215 215 v 220 221 l 108,-3 107,-3 3,-217 2,-218 h 105 105 v 1085 1085 h 1085 1085 v 325 325 H 6290 4990 v 220 220 h -325 -325 v -435 -435 h -435 -435 v -545 -545 h 435 435 v -325 -325 h -217 -218 l 3,-215 3,-215 H 3475 3040 V 2605 1520 h -545 -545 v 215 215 H 1735 1520 V 3035 4120 H 1410 1300 V 2710 1300 h 110 110 v 220 221 l 108,-3 107,-3 3,-217 2,-218 h 975 975 v 975 975 h -110 -110 v -865 -865 h -110 -110 v 975 975 h 330 330 V 2388 1305 l 105,-3 105,-3 2,1303 3,1303 215,2 215,2 3,540 2,541 h -435 -435 v 325 325 h 650 650 v 110 110 h -215 -215 v 325 325 h 105 105 l 2,-217 3,-218 1303,-3 1302,-2 V 5965 5860 H 6295 5210 l -2,-217 -3,-218 -650,-5 -650,-5 v -103 -102 h 653 652 v -545 -545 h -110 -110 v 435 435 h -110 -110 v -650 -650 h -215 -215 v -325 -325 h 215 215 l 2,-650 3,-651 323,-2 322,-2 v 433 432 h 545 545 V 1735 870 h 110 110 v 975 975 h -760 -760 v -435 -435 h -110 -110 v 545 545 h 975 975 V 1955 870 h 110 110 v 1085 1085 h 975 975 v -110 -110 h -865 -865 v -542 -543 h 105 105 v 433 432 h 110 110 l -2,-758 -3,-757 h -105 -105 l -3,218 -2,217 H 7485 7380 V 1195 870 h 325 325 v 865 865 h 650 650 v 870 870 h 975 975 v -760 -760 h -110 -110 v 650 650 h -755 -755 v -760 -760 l 323,2 322,3 v 215 215 l -107,3 -108,3 v -111 -110 h -110 -110 l 2,542 3,543 108,3 107,3 v -331 -331 l 108,3 107,3 3,328 2,327 323,-2 322,-3 3,-653 2,-652 h 325 325 v 870 870 h 435 435 v 975 975 h -110 -110 v -435 -436 l -107,3 -108,3 -3,758 -2,757 h 220 220 v 325 325 h -110 -110 v -215 -215 h -435 -435 v -110 -110 h 220 221 l -2,-105 -1,-105 h -329 -329 l 2,323 3,322 433,3 432,2 v 105 105 h -215 -215 v 325 325 h 215 215 v 435 435 h 325 325 v -110 -110 h -215 -215 v -215 -215 h 110 110 v 110 110 h 105 105 v -325 -325 h -105 -105 v 105 105 h -110 -110 v -105 -105 l -216,-2 -216,-3 v -105 -105 l 431,-3 431,-2 v -540 -540 h -215 -215 v -110 -110 h 215 215 V 5315 4120 h -432 -433 l 2,-322 2,-323 327,-3 327,-2 -7,52 c -3,29 -6,79 -6,111 v 57 h -215 -216 l 3,108 3,107 323,3 322,2 V 2715 1520 H 11280 9980 v -110 -110 h 650 650 V 975 650 h -650 -650 V 540 430 h 760 760 v 435 435 h 540 540 V 760 220 h -105 -105 l -2,430 -3,431 h -323 -323 l -2,-106 -2,-105 h 218 217 V 435 0 h 325 325 v 6400 6400 H 6400 0 Z"
         id="path1"
         style="fill:#ff00ff;fill-opacity:0.168741;stroke-width:11.2832" /><path
         d="m 6070,11715 v -215 h -215 -215 v -220 -220 h -432 l -433,1 -3,-756 -2,-755 h 435 435 v -220 -220 h 110 110 v 220 220 h 105 105 l 2,-652 3,-653 108,-3 107,-3 v 761 760 h -650 -650 v 545 545 h 325 325 v -110 -110 h -215 -215 v -325 -325 h 105 105 v 215 215 h 760 760 v -430 -430 l 218,-2 217,-3 3,-1082 2,-1083 h 430 430 l 2,-217 3,-218 108,-3 107,-3 v 221 220 l 543,-2 542,-3 3,-107 3,-108 h -436 -435 v -215 -215 h -325 -325 v 215 215 H 7595 7160 V 8245 9330 H 7050 6940 V 8135 6940 h 435 435 v -105 -105 h -542 -543 l 3,430 2,430 H 5645 4560 v 325 325 h 325 325 v -105 -105 h -220 -220 v -110 -110 h 325 325 v 325 325 h -540 -540 v -540 -540 h 1085 1085 v -325 -325 h -545 -545 v 105 105 h 435 435 v 110 110 H 5205 4120 v 1085 1085 h -760 -760 v -435 -435 h -325 -325 v 435 435 h -215 -215 v 215 215 h -110 -110 v -435 -436 l -107,3 -108,3 -3,543 -2,542 h 545 545 v -110 -110 h -214 -215 l -3,-105 -3,-105 h 218 217 v -435 -435 h 110 110 v 1085 1085 h 325 325 v -110 -110 h -220 -221 l 3,-107 3,-108 323,-3 322,-2 v 327 328 l -540,-3 -540,-2 v -430 -430 h -545 -545 v 430 l 1,431 H 758 435 v -323 -323 l 108,-3 107,-3 v 221 220 H 760 870 V 9765 8680 h 325 325 v 215 215 h 110 110 v -432 l -1,-433 431,-3 430,-2 v -215 -215 h 110 110 v 215 215 h 325 325 v -430 -430 h 110 110 l -2,755 -3,756 -323,2 -322,2 v -107 -108 h 215 215 v -110 -110 h -325 -325 v 325 325 h 545 545 v -975 -975 h -330 -330 v 435 435 h -105 -105 v -650 -650 h -545 -545 v 430 430 h -107 -108 l 3,-215 3,-215 H 1195 650 v 110 110 h 218 217 l -2,322 -2,323 -106,3 -105,3 V 7810 7590 H 545 220 v 1845 1845 l 431,2 431,3 v 105 105 l -541,3 -541,2 V 5750 0 h 5965 5965 v 325 325 h -107 -108 l 3,-215 3,-215 h -980 -981 v 325 325 h 653 652 l -2,105 -2,105 h -865 -866 v 545 545 h 1300 1300 v 435 435 h 110 110 V 2495 1950 H 10850 9550 v -325 -325 h 105 105 l 2,218 3,217 1300,2 1300,3 3,755 2,755 h -327 -328 l 2,-430 3,-430 h -545 -545 v 650 650 h -110 -110 V 3040 2390 H 9545 8680 V 1410 430 h 325 325 v 110 110 l -217,2 -218,3 v 755 755 l 108,3 107,3 V 1521 870 l 218,-2 217,-3 3,-323 2,-322 H 7270 4990 v 540 540 h 435 435 v 435 435 h 105 105 V 1410 650 h -325 -326 l 3,107 3,108 218,3 218,2 -3,105 -3,106 -323,2 -322,2 V 758 430 h 1625 1625 v 980 981 l -107,-3 -108,-3 -3,-867 -2,-868 h -975 -975 v 870 870 h -325 -325 v -435 -435 h -540 -540 v 650 650 h -110 -110 l -2,-867 -3,-868 -1080,-2 -1080,-3 -3,-105 -3,-105 h 1196 1195 v 215 215 h 105 105 V 760 220 H 3145 1520 V 435 650 H 1410 1300 V 435 220 H 975 650 V 435 650 H 540 430 V 435 220 H 325 220 V 545 870 H 545 870 V 650 429 l 105,3 106,3 2,215 2,215 h 325 325 l 2,-215 2,-215 h 1408 1408 l 3,108 3,107 H 3255 1950 v 218 217 H 1517 1085 V 2167 3250 H 978 870 l -2,-1082 -3,-1083 -322,-3 -323,-3 V 2710 4340 H 545 870 V 4015 3690 H 760 650 v 215 215 H 540 430 V 2710 1300 h 110 110 v 1085 1085 l 215,2 215,3 3,1408 2,1407 H 757 430 l 2,-757 3,-758 108,-3 107,-3 v 651 650 H 760 870 V 5315 4560 H 545 220 v 975 975 h 540 540 V 5425 4340 h 220 220 V 3255 2170 h 215 215 v -214 -215 l 106,-3 c 58,-2 108,-1 110,1 2,2 4,442 4,978 v 973 h -110 -110 v -650 -650 h -110 -110 l 2,758 3,757 322,3 323,2 V 2825 1740 h 110 110 v 1085 1085 h 433 l 432,-1 3,106 3,105 h -871 -870 v 220 220 H 1735 1520 V 5645 6730 H 870 220 v 325 325 h 105 105 v -220 -220 h 655 655 V 5858 4775 l 215,-3 215,-2 v -215 -215 h 325 325 v 760 760 h -110 -110 v -649 -650 l -105,-3 -105,-3 v 218 217 h -220 -220 v 760 760 h 870 871 l -3,108 -3,107 -217,3 -218,2 v 105 105 h 330 330 l -2,-322 -3,-323 -867,-3 -868,-2 v -540 -540 h 110 110 v 430 430 h 325 325 v -865 -865 h 540 540 v 110 110 h -435 -435 v 755 755 h 435 435 v 435 435 h 545 545 V 6725 6510 H 6510 7810 V 5965 5420 H 6725 5640 v -755 -755 l 975,-2 975,-3 v 218 217 h 545 545 v -325 -325 h -325 -325 v 110 111 l 215,-3 215,-3 v 108 107 H 8135 7810 V 3905 3690 H 6725 5640 v -110 -110 l 1625,2 1625,3 v 540 540 l -1190,3 -1190,2 v -110 -110 h 435 435 v -110 -110 h -545 -545 v 325 325 l 1300,2 1301,3 2,323 2,322 h -217 -218 v 325 325 h 650 650 v 110 110 h -215 -215 v 110 110 h 325 325 v -870 -870 h 538 c 296,0 541,2 543,4 2,2 3,248 1,545 l -2,541 h -325 -325 v -325 -325 h 110 110 v 215 215 h 110 110 v -325 -325 h -325 -325 v 540 540 h 540 540 v -650 -650 h 325 325 v 110 110 h -215 -215 v 650 650 h -650 -650 v 435 435 h -110 -110 v -215 -215 l -432,-2 -433,-3 -3,-217 -2,-218 h -435 -435 v -540 -540 h 220 220 V 5100 4990 H 7375 6070 v -435 -435 h -105 -105 v 545 545 h 1085 1085 v 650 650 h 433 432 l -3,215 -3,215 h 435 436 l 2,218 3,217 323,3 322,2 v -435 -435 h 110 110 v 540 540 H 9110 7590 v 545 545 h 870 870 v 540 540 h -325 -325 v -325 -326 l 106,3 105,3 2,215 2,215 108,3 107,3 v -331 -330 l -322,2 -323,3 -3,543 -2,542 h 435 435 v 540 540 h -110 -110 v -215 -215 h -435 -436 l 3,-107 3,-108 433,-3 432,-2 v -105 -105 h -540 -540 v 325 325 h 433 432 v 432 433 l 108,2 107,2 v -219 -220 h 110 110 v 325 325 h -325 -325 l -2,-432 -3,-433 -432,-3 -433,-2 v -975 -975 h 110 110 v 435 435 h 105 105 v -545 -545 l -322,2 -323,3 -3,433 -2,432 h -215 -215 v 435 435 h -650 -650 v 325 325 h 215 215 v 325 325 h -110 -110 z"
         id="path2"
         style="fill:#ff00ff;fill-opacity:0.168741;stroke-width:11.2832" /><path
         d="m 6508,11498 -3,-433 -215,-2 -215,-2 -3,-105 -3,-106 653,-2 653,-3 3,-432 2,-433 h 105 105 v 650 650 h 435 435 v 325 325 h -110 -110 v -215 -215 h -650 -650 v -110 -110 h 220 221 l -3,-107 -3,-108 -322,-3 -322,-2 -3,326 c -2,179 -1,327 1,330 2,2 295,4 650,4 h 646 l 3,105 3,105 h -761 -760 z"
         id="path3"
         style="fill:#ff00ff;fill-opacity:0.168741;stroke-width:11.2832" /><path
         d="m 437,10193 c -4,-3 -7,-541 -7,-1195 V 7810 h 110 110 v 215 215 l 216,2 215,3 2,108 2,107 H 868 650 v 870 870 H 547 c -57,0 -107,-3 -110,-7 z"
         id="path4"
         style="fill:#ff00ff;fill-opacity:0.168741;stroke-width:11.2832" /><path
         d="m 1300,7920 v -540 h 110 110 v 215 215 h 325 325 v -435 -435 h 325 325 v 325 325 h -110 -110 v -215 -215 h -105 -105 v 435 435 h -435 -435 v 215 215 h -110 -110 z"
         id="path5"
         style="fill:#ff00ff;fill-opacity:0.168741;stroke-width:11.2832" /></g></g></svg>
