<?xml version="1.0" encoding="UTF-8" standalone="no"?>
<!-- Created with Inkscape (http://www.inkscape.org/) -->

<svg
   width="78.596581mm"
   height="14.158181mm"
   viewBox="0 0 78.596581 14.158181"
   version="1.1"
   id="svg1"
   sodipodi:docname="software.svg"
   inkscape:version="1.4 (86a8ad7, 2024-10-11)"
   xmlns:inkscape="http://www.inkscape.org/namespaces/inkscape"
   xmlns:sodipodi="http://sodipodi.sourceforge.net/DTD/sodipodi-0.dtd"
   xmlns="http://www.w3.org/2000/svg"
   xmlns:svg="http://www.w3.org/2000/svg">
  <sodipodi:namedview
     id="namedview1"
     pagecolor="#ffffff"
     bordercolor="#666666"
     borderopacity="1.0"
     inkscape:showpageshadow="2"
     inkscape:pageopacity="0.0"
     inkscape:pagecheckerboard="0"
     inkscape:deskcolor="#d1d1d1"
     inkscape:document-units="mm"
     inkscape:zoom="5.6568544"
     inkscape:cx="107.12667"
     inkscape:cy="27.665552"
     inkscape:window-width="1920"
     inkscape:window-height="1017"
     inkscape:window-x="1912"
     inkscape:window-y="-8"
     inkscape:window-maximized="1"
     inkscape:current-layer="layer2"
     showgrid="false">
    <inkscape:page
       x="0"
       y="-7.0681937e-13"
       width="78.596581"
       height="14.15818"
       id="page2"
       margin="0"
       bleed="0" />
  </sodipodi:namedview>
  <defs
     id="defs1" />
  <g
     inkscape:groupmode="layer"
     id="layer2"
     inkscape:label="Livello 2"
     style="display:inline"
     transform="translate(-61.706399,-124.55115)">
    <path
       d="m 62.706402,136.49352 v -2.43164 h 2.431637 v 2.43164 h 3.647457 v -3.64746 h -1.215819 v -1.21582 h -2.431638 v -1.21582 h -1.215818 v -1.21582 h -1.215819 v -2.43163 h 1.215819 v -1.21582 h 6.079093 v 1.21582 h 1.215819 v 2.43163 h -2.431637 v -2.43163 h -3.647457 v 2.43163 h 1.215819 v 1.21582 h 2.431638 v 1.21582 h 1.215818 v 1.21582 h 1.215819 v 3.64746 h -1.215819 v 1.21582 h -6.079093 v -1.21582 z m 9.72655,0 v -9.72655 h 1.215819 v -1.21582 h 6.079094 v 1.21582 h 1.215818 v 9.72655 h -1.215818 v 1.21582 h -6.079094 v -1.21582 z m 2.431637,0 h 3.647457 v -9.72655 h -3.647457 z m 7.294913,1.21582 v -1.21582 h 1.215819 v -9.72655 h -1.215819 v -1.21582 h 8.510731 v 3.64745 h -1.215818 v -1.21581 h -1.215819 v -1.21582 h -2.431638 v 3.64745 h 1.215819 v -1.21582 h 1.215819 v 3.64746 h -1.215819 v -1.21582 h -1.215819 v 4.86328 h 1.215819 v 1.21582 z M 93.10187,129.1986 v -3.64745 h 7.29491 v 3.64745 h -1.215816 v -1.21581 h -1.215819 v 8.51073 h 1.215819 v 1.21582 h -4.863275 v -1.21582 h 1.215818 v -8.51073 h -1.215818 v 1.21581 z m 8.51073,7.29492 v -10.94237 h 2.43164 v 8.51073 h 1.21582 v -3.64746 h 1.21582 v 3.64746 h 1.21582 v -8.51073 h 2.43163 v 10.94237 h -1.21582 v 1.21582 h -2.43163 v -2.43164 h -1.21582 v 2.43164 h -2.43164 v -1.21582 z m 9.72655,1.21582 v -8.51074 h 1.21582 v -1.21581 h 1.21582 v -1.21582 h 1.21582 v -1.21582 h 1.21582 v 1.21582 h 1.21582 v 1.21582 h 1.21582 v 1.21581 h 1.21581 v 8.51074 h -2.43163 v -4.86328 h -3.64746 v 4.86328 z m 2.43164,-6.0791 h 3.64746 v -2.43164 h -1.21582 v -1.21581 h -1.21582 v 1.21581 h -1.21582 z m 7.29491,6.0791 v -1.21582 h 1.21582 v -9.72655 h -1.21582 v -1.21582 h 7.29491 v 1.21582 h 1.21582 v 3.64745 h -1.21582 v 2.43164 h 1.21582 v 4.86328 h -2.43164 v -4.86328 h -1.21581 v -1.21582 h -1.21582 v 6.0791 z m 3.64746,-7.29492 h 2.43163 v -3.64745 h -2.43163 z m 6.0791,7.29492 v -1.21582 h 1.21581 v -9.72655 h -1.21581 v -1.21582 h 8.51073 v 3.64745 h -1.21582 v -1.21581 h -1.21582 v -1.21582 h -2.43164 v 3.64745 h 1.21582 v -1.21582 h 1.21582 v 3.64746 h -1.21582 v -1.21582 h -1.21582 v 4.86328 h 2.43164 v -1.21582 h 1.21582 v -1.21582 h 1.21582 v 3.64746 z"
       id="text74"
       style="font-size:19.4531px;line-height:1.25;font-family:'PxPlus IBM VGA 8x16';-inkscape-font-specification:'PxPlus IBM VGA 8x16';text-align:center;text-anchor:middle;fill:#ffffff;stroke:#000000;stroke-width:2"
       aria-label="SOFTWARE" />
    <path
       d="m 62.706402,136.49352 v -2.43164 h 2.431637 v 2.43164 h 3.647457 v -3.64746 h -1.215819 v -1.21582 h -2.431638 v -1.21582 h -1.215818 v -1.21582 h -1.215819 v -2.43163 h 1.215819 v -1.21582 h 6.079093 v 1.21582 h 1.215819 v 2.43163 h -2.431637 v -2.43163 h -3.647457 v 2.43163 h 1.215819 v 1.21582 h 2.431638 v 1.21582 h 1.215818 v 1.21582 h 1.215819 v 3.64746 h -1.215819 v 1.21582 h -6.079093 v -1.21582 z m 9.72655,0 v -9.72655 h 1.215819 v -1.21582 h 6.079094 v 1.21582 h 1.215818 v 9.72655 h -1.215818 v 1.21582 h -6.079094 v -1.21582 z m 2.431637,0 h 3.647457 v -9.72655 h -3.647457 z m 7.294913,1.21582 v -1.21582 h 1.215819 v -9.72655 h -1.215819 v -1.21582 h 8.510731 v 3.64745 h -1.215818 v -1.21581 h -1.215819 v -1.21582 h -2.431638 v 3.64745 h 1.215819 v -1.21582 h 1.215819 v 3.64746 h -1.215819 v -1.21582 h -1.215819 v 4.86328 h 1.215819 v 1.21582 z M 93.10187,129.1986 v -3.64745 h 7.29491 v 3.64745 h -1.215816 v -1.21581 h -1.215819 v 8.51073 h 1.215819 v 1.21582 h -4.863275 v -1.21582 h 1.215818 v -8.51073 h -1.215818 v 1.21581 z m 8.51073,7.29492 v -10.94237 h 2.43164 v 8.51073 h 1.21582 v -3.64746 h 1.21582 v 3.64746 h 1.21582 v -8.51073 h 2.43163 v 10.94237 h -1.21582 v 1.21582 h -2.43163 v -2.43164 h -1.21582 v 2.43164 h -2.43164 v -1.21582 z m 9.72655,1.21582 v -8.51074 h 1.21582 v -1.21581 h 1.21582 v -1.21582 h 1.21582 v -1.21582 h 1.21582 v 1.21582 h 1.21582 v 1.21582 h 1.21582 v 1.21581 h 1.21581 v 8.51074 h -2.43163 v -4.86328 h -3.64746 v 4.86328 z m 2.43164,-6.0791 h 3.64746 v -2.43164 h -1.21582 v -1.21581 h -1.21582 v 1.21581 h -1.21582 z m 7.29491,6.0791 v -1.21582 h 1.21582 v -9.72655 h -1.21582 v -1.21582 h 7.29491 v 1.21582 h 1.21582 v 3.64745 h -1.21582 v 2.43164 h 1.21582 v 4.86328 h -2.43164 v -4.86328 h -1.21581 v -1.21582 h -1.21582 v 6.0791 z m 3.64746,-7.29492 h 2.43163 v -3.64745 h -2.43163 z m 6.0791,7.29492 v -1.21582 h 1.21581 v -9.72655 h -1.21581 v -1.21582 h 8.51073 v 3.64745 h -1.21582 v -1.21581 h -1.21582 v -1.21582 h -2.43164 v 3.64745 h 1.21582 v -1.21582 h 1.21582 v 3.64746 h -1.21582 v -1.21582 h -1.21582 v 4.86328 h 2.43164 v -1.21582 h 1.21582 v -1.21582 h 1.21582 v 3.64746 z"
       id="text75"
       style="font-size:19.4531px;line-height:1.25;font-family:'PxPlus IBM VGA 8x16';-inkscape-font-specification:'PxPlus IBM VGA 8x16';text-align:center;text-anchor:middle;fill:#00ff00;stroke-width:2"
       aria-label="SOFTWARE" />
  </g>
</svg>
