<?xml version="1.0" encoding="UTF-8" standalone="no"?>
<!-- Created with Inkscape (http://www.inkscape.org/) -->

<svg
   width="97.223709mm"
   height="12.612006mm"
   viewBox="0 0 97.223709 12.612006"
   version="1.1"
   id="svg1"
   inkscape:version="1.4 (86a8ad7, 2024-10-11)"
   sodipodi:docname="logo.svg"
   xml:space="preserve"
   xmlns:inkscape="http://www.inkscape.org/namespaces/inkscape"
   xmlns:sodipodi="http://sodipodi.sourceforge.net/DTD/sodipodi-0.dtd"
   xmlns:xlink="http://www.w3.org/1999/xlink"
   xmlns="http://www.w3.org/2000/svg"
   xmlns:svg="http://www.w3.org/2000/svg"><sodipodi:namedview
     id="namedview1"
     pagecolor="#ffffff"
     bordercolor="#666666"
     borderopacity="1.0"
     inkscape:showpageshadow="2"
     inkscape:pageopacity="0.0"
     inkscape:pagecheckerboard="0"
     inkscape:deskcolor="#d1d1d1"
     inkscape:document-units="mm"
     inkscape:zoom="1.4142136"
     inkscape:cx="430.27448"
     inkscape:cy="736.45171"
     inkscape:window-width="1920"
     inkscape:window-height="1017"
     inkscape:window-x="1912"
     inkscape:window-y="-8"
     inkscape:window-maximized="1"
     inkscape:current-layer="layer1"><inkscape:page
       x="0"
       y="-1.1706278e-12"
       width="97.223709"
       height="12.612005"
       id="page2"
       margin="0"
       bleed="0" /></sodipodi:namedview><defs
     id="defs1"><linearGradient
       id="linearGradient84"
       inkscape:collect="always"><stop
         style="stop-color:#000000;stop-opacity:1;"
         offset="0"
         id="stop84" /><stop
         style="stop-color:#000000;stop-opacity:0;"
         offset="1"
         id="stop85" /></linearGradient><linearGradient
       inkscape:collect="always"
       xlink:href="#linearGradient84"
       id="linearGradient85"
       x1="-182.562"
       y1="110.7282"
       x2="-171.45"
       y2="110.7282"
       gradientUnits="userSpaceOnUse" /></defs><g
     inkscape:label="Outline"
     inkscape:groupmode="layer"
     id="layer1"
     style="display:inline;stroke-width:1.5;stroke-dasharray:none"
     transform="translate(-62.097896,-170.7)"><path
       style="font-size:10.5833px;line-height:1.25;font-family:'Delta Block';-inkscape-font-specification:'Delta Block';text-align:center;text-anchor:middle;fill:none;stroke:#aaccff;stroke-width:1.5;stroke-dasharray:none"
       d="m -182.562,71.4322 v -1.7171 l 8.705,-3.5877 v -1.8602 l 2.407,-1.0318 v 5.6991 l -2.407,0.9132 v -1.8601 z m 0,4.2929 v -1.7172 l 11.112,-4.1235 v 1.8997 l -4.717,1.6729 v 1.8222 l 4.717,-1.5954 v 1.8997 l -11.112,3.5759 v -1.7172 l 4.178,-1.4132 v -1.7858 z m 2.048,8.9029 -2.048,0.5414 v -5.1515 l 11.112,-3.4845 v 5.6991 l -2.407,0.6363 v -3.7203 l -2.31,0.6862 v 2.7333 l -2.217,0.6042 v -2.6787 l -2.13,0.633 z m -2.048,9.1271 V 92.038 l 8.705,-1.7286 v -1.8601 l 2.407,-0.5177 v 5.6991 l -2.407,0.399 v -1.8601 z m 2.048,4.0039 v 1.7508 l 6.657,-0.8297 V 96.82 Z m -2.048,0.289 2.048,-2.0398 6.657,-1.0484 2.407,1.5205 V 98.38 l -2.407,2.16 -6.657,0.721 -2.048,-1.4959 z m 5.276,8.275 -5.276,0.311 v -1.717 l 5.276,-0.398 2.842,-1.14 -8.118,0.679 v -1.717 l 11.112,-1.111 v 2.849 l -2.994,1.151 2.994,0.749 v 2.849 l -11.112,0.381 v -1.717 l 8.118,-0.411 z m 1.119,5.4 v 1.823 l 2.31,0.015 v -1.86 z m -6.395,-1.655 11.112,-0.29 v 3.8 l -2.407,1.844 -2.31,-0.054 -1.119,-0.928 -1.098,0.876 -2.13,-0.049 -2.048,-1.765 z m 2.048,1.697 v 1.751 l 2.13,0.015 v -1.786 z m 0,10.505 v 1.751 l 6.657,0.701 v -1.86 z m -2.048,-0.182 2.048,-1.569 6.657,0.483 2.407,2.074 v 1.9 l -2.407,1.606 -6.657,-0.81 -2.048,-1.967 z m 0,6.01 v -1.717 l 11.112,1.444 v 5.7 l -2.407,-0.432 v -3.72 l -2.31,-0.339 v 2.734 l -2.217,-0.379 v -2.679 z m 0,12.02 v -1.717 l 8.705,2.133 v -1.861 l 2.407,0.551 v 5.699 l -2.407,-0.669 v -1.86 z m 0,4.293 v -1.717 l 11.112,3.179 v 1.899 l -4.717,-1.426 v 1.822 l 4.717,1.504 v 1.9 l -11.112,-3.727 v -1.717 l 4.178,1.333 v -1.786 z m 2.048,10.249 -2.048,-0.805 v -5.151 l 11.112,3.818 v 5.699 l -2.407,-0.946 v -3.72 l -2.31,-0.832 v 2.734 l -2.217,-0.853 v -2.679 l -2.13,-0.767 z"
       id="text1"
       transform="rotate(-90)"
       aria-label="THE TOMB OF THE"
       inkscape:export-filename="..\..\images\logo\thetombofthe.svg"
       inkscape:export-xdpi="127"
       inkscape:export-ydpi="127" /></g><g
     inkscape:groupmode="layer"
     id="layer4"
     inkscape:label="Foreground"
     style="display:inline"
     transform="translate(-62.097896,-170.7)"><path
       style="font-size:10.5833px;line-height:1.25;font-family:'Delta Block';-inkscape-font-specification:'Delta Block';text-align:center;text-anchor:middle;fill:#0000ff;stroke:none;stroke-width:0.5;stroke-dasharray:none"
       d="m -182.562,71.4322 v -1.7171 l 8.705,-3.5877 v -1.8602 l 2.407,-1.0318 v 5.6991 l -2.407,0.9132 v -1.8601 z m 0,4.2929 v -1.7172 l 11.112,-4.1235 v 1.8997 l -4.717,1.6729 v 1.8222 l 4.717,-1.5954 v 1.8997 l -11.112,3.5759 v -1.7172 l 4.178,-1.4132 v -1.7858 z m 2.048,8.9029 -2.048,0.5414 v -5.1515 l 11.112,-3.4845 v 5.6991 l -2.407,0.6363 v -3.7203 l -2.31,0.6862 v 2.7333 l -2.217,0.6042 v -2.6787 l -2.13,0.633 z m -2.048,9.1271 V 92.038 l 8.705,-1.7286 v -1.8601 l 2.407,-0.5177 v 5.6991 l -2.407,0.399 v -1.8601 z m 2.048,4.0039 v 1.7508 l 6.657,-0.8297 V 96.82 Z m -2.048,0.289 2.048,-2.0398 6.657,-1.0484 2.407,1.5205 V 98.38 l -2.407,2.16 -6.657,0.721 -2.048,-1.4959 z m 5.276,8.275 -5.276,0.311 v -1.717 l 5.276,-0.398 2.842,-1.14 -8.118,0.679 v -1.717 l 11.112,-1.111 v 2.849 l -2.994,1.151 2.994,0.749 v 2.849 l -11.112,0.381 v -1.717 l 8.118,-0.411 z m 1.119,5.4 v 1.823 l 2.31,0.015 v -1.86 z m -6.395,-1.655 11.112,-0.29 v 3.8 l -2.407,1.844 -2.31,-0.054 -1.119,-0.928 -1.098,0.876 -2.13,-0.049 -2.048,-1.765 z m 2.048,1.697 v 1.751 l 2.13,0.015 v -1.786 z m 0,10.505 v 1.751 l 6.657,0.701 v -1.86 z m -2.048,-0.182 2.048,-1.569 6.657,0.483 2.407,2.074 v 1.9 l -2.407,1.606 -6.657,-0.81 -2.048,-1.967 z m 0,6.01 v -1.717 l 11.112,1.444 v 5.7 l -2.407,-0.432 v -3.72 l -2.31,-0.339 v 2.734 l -2.217,-0.379 v -2.679 z m 0,12.02 v -1.717 l 8.705,2.133 v -1.861 l 2.407,0.551 v 5.699 l -2.407,-0.669 v -1.86 z m 0,4.293 v -1.717 l 11.112,3.179 v 1.899 l -4.717,-1.426 v 1.822 l 4.717,1.504 v 1.9 l -11.112,-3.727 v -1.717 l 4.178,1.333 v -1.786 z m 2.048,10.249 -2.048,-0.805 v -5.151 l 11.112,3.818 v 5.699 l -2.407,-0.946 v -3.72 l -2.31,-0.832 v 2.734 l -2.217,-0.853 v -2.679 l -2.13,-0.767 z"
       id="path75"
       aria-label="THE TOMB OF THE"
       transform="rotate(-90)" /></g><g
     inkscape:groupmode="layer"
     id="layer3"
     inkscape:label="Maze decoration"
     style="display:inline"
     transform="translate(-62.097896,-170.7)"><path
       id="path77"
       style="font-size:10.5833px;line-height:1.25;font-family:'Delta Block';-inkscape-font-specification:'Delta Block';text-align:center;text-anchor:middle;display:inline;fill:#000000;fill-opacity:0.318119;stroke:none;stroke-width:0.5;stroke-dasharray:none"
       d="m -171.45,66.586117 -1.96577,-1.97404 0.8909,-0.915707 -1.33222,0.571025 v 1.859835 l -0.3576,0.147278 2.68873,2.688724 0.076,-0.02894 z m 0,3.298506 -0.0367,0.01344 -0.16743,0.167432 -0.61495,0.615466 -0.35915,-0.359151 -1.79473,0.666109 1.36633,1.366325 1.60662,-0.569991 z m 0,4.898926 -0.76326,0.763261 -1.19941,-1.19941 -2.75435,0.931726 V 74.57891 l -3.37344,3.372921 -0.34675,0.346749 3.62923,-1.167887 1.58389,-1.583883 0.81287,0.81287 2.41122,-0.77618 z m 0,1.749764 -1.70326,0.534334 0.88419,0.884184 0.81907,-0.803568 z m 0,3.060795 -0.81907,0.819072 -1.21388,-1.21388 -1.21905,-1.219047 -0.57051,0.604098 -0.5705,0.60358 0.42478,0.424781 1.56114,-0.464055 v 2.025716 l 1.34049,1.340487 1.0666,-0.282153 z m 0,8.337476 -0.47026,0.101285 0.47026,0.470256 z m 0,2.920752 -2.40399,-2.403471 -0.003,5.17e-4 v 1.859834 l -0.49816,0.09922 0.91157,0.911572 -0.94671,0.946713 0.5333,-0.09715 v 1.860351 l 0.0631,-0.01034 0.32246,-0.322461 2.02158,-2.022099 z m 0,5.62808 -1.40457,-0.887801 -0.58911,0.593245 1.78956,1.823145 0.20412,0.206705 z m 0,4.749584 -2.41329,0.24133 -1.39836,1.39836 -0.63046,0.63045 1.44798,-0.12092 -2.21537,0.88883 -0.41961,0.41962 -0.17932,-0.17932 -0.0274,0.0109 -2.25309,0.17002 1.20096,1.20096 0.46767,0.46767 0.58446,-0.0346 0.72605,0.19378 2.47272,-2.47271 2.63705,-2.63705 z m 0,2.63808 -0.3421,0.34261 0.3421,-0.13177 z m 0,2.11098 -1.68827,-0.42271 -1.47795,1.47846 0.17209,0.046 -0.22996,0.0119 -1.20251,1.20251 -0.709,0.709 2.54816,-0.0873 2.58744,-2.58744 z m 0,2.69958 -0.15503,0.15451 0.15503,-0.005 z m 0,1.09916 -1.12913,0.0294 -1.89963,1.89963 0.62167,-0.006 v 1.85984 l -2.30993,-0.015 v -0.15089 l -1.07849,1.07848 1.07849,0.89452 0.47749,0.0109 1.01544,-1.01544 0.95343,0.95343 1.39371,-1.06712 -1.11673,-1.11672 1.81798,-1.81798 0.1757,-0.1757 z m 0,15.08125 -0.20412,-0.20413 -3.7667,-3.76669 -2.65358,-0.19224 1.96577,1.96577 2.25154,0.19999 v 1.86035 l -0.21394,-0.0227 1.2144,1.21439 5.1e-4,5.2e-4 1.40612,-0.93845 z m 0,4.88652 -2.22054,-2.20917 -2.72748,-0.3545 2.13114,2.13114 0.40979,0.0599 v 0.34985 l 0.41341,0.41341 -0.41341,0.41341 v 2.42725 l 0.41341,-0.40205 1.23042,-1.20767 0.76326,0.76326 z m 0,9.65574 -0.22996,-0.22996 -2.17713,-0.49816 v 0.78238 l 2.40709,2.40709 z m 0,4.92218 -1.40663,-1.40663 -1.81746,-1.81798 -0.85731,0.85731 1.67431,0.4377 v 1.86035 l 2.40709,0.6687 z m 0,3.19981 -0.18862,0.19171 0.18862,0.0568 z m 0,2.1487 -1.6123,-0.51418 -0.38138,0.38706 1.99368,2.02158 z m 0,4.32739 -2.01073,-2.01022 -0.24081,-0.24081 -3.66334,-1.25884 0.25786,0.25787 1.20303,1.20251 -0.61598,0.61495 -0.61547,0.61546 -1.2485,-1.2485 v 2.46083 l 0.046,0.046 -0.046,0.0455 v 0.11989 l 2.21692,0.85318 v -2.7342 l 1.43402,0.51625 0.0589,-0.0589 0.12557,0.12558 0.69143,0.24908 v 0.44235 l 0.41341,0.41341 1.22473,1.22525 0.58757,-0.60978 0.18138,-0.18811 z m 0,3.22771 -0.71365,0.71365 0.71365,0.28008 z m -0.56534,-11.5161 -1.91306,-0.54725 -1.4273,1.4273 1.88929,0.57103 0.006,-0.006 z m -0.49609,12.0928 -1.34566,-1.34513 v 0.81648 z m -0.10026,-58.380928 -0.85989,-0.859896 -0.38551,-0.385506 v 0.502812 l -1.74098,0.217041 1.65262,1.652607 0.0884,-0.01 z m -0.69814,-29.782678 -0.54726,-0.547254 v 0.754993 z m -1.33946,-1.339453 -1.30793,-1.307931 -1.74304,0.718302 1.28777,1.287777 z m -0.0868,58.174229 -2.07068,-2.06344 -2.63963,-0.27802 2.01331,2.01331 z m -0.14573,22.10304 -1.28519,-0.40979 v -0.76585 l -1.93839,1.93787 3.00292,1.00666 -0.77411,-0.77412 z m -0.016,-53.454617 -2.78898,0.439249 -0.62322,0.623218 1.1064,1.105876 2.15697,-0.303858 -0.85731,-0.857828 z m -0.093,14.746907 -2.52698,0.0661 -1.81797,1.81746 0.95188,-0.009 v 1.51825 l 2.50734,-2.50734 z m -0.8201,34.75498 -1.85777,-0.53175 -0.0258,0.0258 -1.35444,1.35444 0.66508,0.20102 v 1.49396 l 1.27124,-1.25935 z m -0.093,-72.713907 -0.2713,-0.273368 -2.959,1.098124 -0.40617,0.40566 -0.18604,-0.186035 -1.71307,0.63562 1.28106,1.281058 1.77457,-0.629418 v 0.190169 l 0.69504,-0.703833 z m 0,19.408634 -0.50436,-0.504362 -2.0066,0.398942 0.0491,0.04909 -2.07222,2.104264 3.03909,-0.553454 z m -0.13178,48.680233 -2.76365,-0.67748 1.72031,1.72031 0.58704,-0.58704 z m -0.1297,-39.21001 -1.55702,-1.555977 -0.0646,-0.0646 -2.72697,0.340031 V 98.38986 l -0.22892,0.228927 -1.20251,1.20251 -0.61495,-0.614949 -0.002,-0.0016 v 0.560173 l 1.77508,1.297079 1.24644,-1.240752 1.23403,1.200442 z m -0.002,-19.464961 -2.14303,-2.142505 0.72606,-0.726054 -3.58583,1.124479 -1.39216,1.39268 v 2.460832 l 0.002,-0.0016 2.04638,-2.046386 v -0.26045 l 0.37052,-0.110071 0.60307,-0.603063 0.32659,0.326595 0.82993,-0.246497 v 1.07642 l 1.25935,1.259355 0.95757,-0.260966 z m 0,48.548971 -3.05977,-3.05976 -2.80861,-0.36535 1.29243,1.28778 0.74,0.73587 1.61903,0.23719 v 1.37305 l 1.58595,1.57716 0.63097,0.108 z m -0.43047,-28.12955 -0.88263,0.0884 0.40101,0.39326 z m -1.4857,1.9389 -0.22686,-0.22686 -1.23041,-1.23041 -1.72341,1.72341 z m -0.0393,-34.008256 -1.26091,-1.270207 -1.72289,0.710034 1.24747,1.247469 z m -0.18759,38.591956 -0.58704,-0.58756 -0.35553,-0.35553 -0.48783,0.0248 -1.82625,1.82573 2.43241,-0.0832 z m -0.0842,43.65419 -1.76113,-1.76165 -0.95808,-0.95808 -1.44849,-0.49765 v 2.63498 l 0.56069,-0.56379 1.48724,1.48725 v -1.10432 z m -0.21239,-4.53203 -1.788,-0.56999 -0.3204,0.3204 0.58756,0.58704 0.58705,0.58756 z m -0.0429,-33.86046 -1.86449,-0.0129 v -0.58395 l -1.25418,1.25419 1.25418,1.08056 0.12351,0.003 z m -0.15296,8.89299 -1.82366,-1.81746 -1.33016,1.01906 1.44229,1.44229 v -0.79581 z m -0.55811,-24.82587 -0.17983,-0.179834 -0.23875,0.238745 z m -0.18138,7.09311 -2.66186,0.20102 -0.35811,0.3576 v 1.38596 l 1.14256,-0.0672 z m -0.0408,38.85706 -1.91358,-0.54726 -1.06556,1.06609 v 0.34571 l 1.62367,0.49145 0.19534,-0.19534 z m -0.15451,-2.68976 -1.61489,-1.603 -0.74776,-0.73949 -0.46198,-0.11318 v 1.71721 z m -0.30799,-30.85393 -2.41226,0.063 -0.0749,0.0749 -0.0294,0.0295 v 2.34921 l 1.81901,-1.81901 z m -0.18965,15.80368 -0.50798,-0.50797 -1.81901,-1.81902 v 0.32557 l 2.04793,1.96732 z m -0.27906,-41.958158 -1.06091,1.0604 1.06091,-0.280603 z m -0.20102,70.562618 -0.61495,-0.61495 -0.61546,-0.61547 -0.6165,0.6165 v 0.0584 l 1.72496,0.67748 z m -0.0599,-77.573043 -1.78697,0.604614 v 1.182357 z m -0.37827,14.920536 -1.4087,0.27957 v 1.12913 z m -0.46871,-20.697961 -0.93999,-0.939994 v 1.312064 z m -0.35347,4.456576 -0.58652,-0.586011 v 0.794267 z m -0.0413,26.769942 -0.54518,0.0543 v 0.48834 z m -0.24339,43.93737 -0.30179,-0.0961 v 0.39791 z m -0.0734,-38.74337 -0.22841,0.0114 v 0.21704 z m -0.0904,40.41045 -0.13797,-0.13746 v 0.0915 z"
       transform="rotate(-90)"
       sodipodi:nodetypes="cccccccccccccccccccccccccccccccccccccccccccccccccccccccccccccccccccccccccccccccccccccccccccccccccccccccccccccccccccccccccccccccccccccccccccccccccccccccccccccccccccccccccccccccccccccccccccccccccccccccccccccccccccccccccccccccccccccccccccccccccccccccccccccccccccccccccccccccccccccccccccccccccccccccccccccccccccccccccccccccccccccccccccccccccccccccccccccccccccccccccccccccccccccccccccccccccccccccccccccccccccccccccccccccccccccccccccccccccccccccccccccccccccc" /></g><g
     inkscape:groupmode="layer"
     id="layer2"
     inkscape:label="Overlay"
     style="display:inline"
     transform="translate(-62.097896,-170.7)"><path
       style="font-size:10.5833px;line-height:1.25;font-family:'Delta Block';-inkscape-font-specification:'Delta Block';text-align:center;text-anchor:middle;display:inline;fill:url(#linearGradient85);stroke:none;stroke-width:0.5;stroke-dasharray:none"
       d="m -182.562,71.4322 v -1.7171 l 8.705,-3.5877 v -1.8602 l 2.407,-1.0318 v 5.6991 l -2.407,0.9132 v -1.8601 z m 0,4.2929 v -1.7172 l 11.112,-4.1235 v 1.8997 l -4.717,1.6729 v 1.8222 l 4.717,-1.5954 v 1.8997 l -11.112,3.5759 v -1.7172 l 4.178,-1.4132 v -1.7858 z m 2.048,8.9029 -2.048,0.5414 v -5.1515 l 11.112,-3.4845 v 5.6991 l -2.407,0.6363 v -3.7203 l -2.31,0.6862 v 2.7333 l -2.217,0.6042 v -2.6787 l -2.13,0.633 z m -2.048,9.1271 V 92.038 l 8.705,-1.7286 v -1.8601 l 2.407,-0.5177 v 5.6991 l -2.407,0.399 v -1.8601 z m 2.048,4.0039 v 1.7508 l 6.657,-0.8297 V 96.82 Z m -2.048,0.289 2.048,-2.0398 6.657,-1.0484 2.407,1.5205 V 98.38 l -2.407,2.16 -6.657,0.721 -2.048,-1.4959 z m 5.276,8.275 -5.276,0.311 v -1.717 l 5.276,-0.398 2.842,-1.14 -8.118,0.679 v -1.717 l 11.112,-1.111 v 2.849 l -2.994,1.151 2.994,0.749 v 2.849 l -11.112,0.381 v -1.717 l 8.118,-0.411 z m 1.119,5.4 v 1.823 l 2.31,0.015 v -1.86 z m -6.395,-1.655 11.112,-0.29 v 3.8 l -2.407,1.844 -2.31,-0.054 -1.119,-0.928 -1.098,0.876 -2.13,-0.049 -2.048,-1.765 z m 2.048,1.697 v 1.751 l 2.13,0.015 v -1.786 z m 0,10.505 v 1.751 l 6.657,0.701 v -1.86 z m -2.048,-0.182 2.048,-1.569 6.657,0.483 2.407,2.074 v 1.9 l -2.407,1.606 -6.657,-0.81 -2.048,-1.967 z m 0,6.01 v -1.717 l 11.112,1.444 v 5.7 l -2.407,-0.432 v -3.72 l -2.31,-0.339 v 2.734 l -2.217,-0.379 v -2.679 z m 0,12.02 v -1.717 l 8.705,2.133 v -1.861 l 2.407,0.551 v 5.699 l -2.407,-0.669 v -1.86 z m 0,4.293 v -1.717 l 11.112,3.179 v 1.899 l -4.717,-1.426 v 1.822 l 4.717,1.504 v 1.9 l -11.112,-3.727 v -1.717 l 4.178,1.333 v -1.786 z m 2.048,10.249 -2.048,-0.805 v -5.151 l 11.112,3.818 v 5.699 l -2.407,-0.946 v -3.72 l -2.31,-0.832 v 2.734 l -2.217,-0.853 v -2.679 l -2.13,-0.767 z"
       id="path82"
       aria-label="THE TOMB OF THE"
       transform="rotate(-90)" /></g></svg>
