<?xml version="1.0" encoding="UTF-8" standalone="no"?>
<svg
   version="1.0"
   width="1215.3375pt"
   height="1215.3698pt"
   viewBox="0 0 1215.3375 1215.3698"
   preserveAspectRatio="xMidYMid"
   id="svg3"
   sodipodi:docname="exit.svg"
   inkscape:version="1.4 (86a8ad7, 2024-10-11)"
   xmlns:inkscape="http://www.inkscape.org/namespaces/inkscape"
   xmlns:sodipodi="http://sodipodi.sourceforge.net/DTD/sodipodi-0.dtd"
   xmlns="http://www.w3.org/2000/svg"
   xmlns:svg="http://www.w3.org/2000/svg">
  <defs
     id="defs3" />
  <sodipodi:namedview
     id="namedview3"
     pagecolor="#ffffff"
     bordercolor="#666666"
     borderopacity="1.0"
     inkscape:showpageshadow="2"
     inkscape:pageopacity="0.0"
     inkscape:pagecheckerboard="0"
     inkscape:deskcolor="#d1d1d1"
     inkscape:document-units="pt"
     showgrid="false"
     inkscape:zoom="0.34628906"
     inkscape:cx="810.01692"
     inkscape:cy="810.01692"
     inkscape:window-width="1920"
     inkscape:window-height="1017"
     inkscape:window-x="1912"
     inkscape:window-y="-8"
     inkscape:window-maximized="1"
     inkscape:current-layer="svg3" />
  <metadata
     id="metadata1">
Created by potrace 1.15, written by Peter Selinger 2001-2017
</metadata>
  <path
     d="m 0.3375,1.0696938 c -0.3,0.7 -0.4,274.1999962 -0.3,607.7999962 l 0.3,606.50001 h 607.5 607.5 V 607.86969 0.36969385 l -607.3,-0.3 c -485.3,-0.2 -607.4,0 -607.7,0.99999995 z m 938.5,319.2999962 v 222.5 h -55.3 -55.2 l -30.2,-79.8 -30.1,-79.7 -16.9,-0.6 c -18.3,-0.7 -21.7,-1 -37.3,-4.1 -11.9,-2.3 -25.6,-8 -38.6,-15.9 -9.6,-5.9 -26.3,-22.4 -30.9,-30.4 -1.5,-2.8 -4.5,-8 -6.6,-11.6 -2.4,-4.2 -4.2,-8.9 -4.9,-13.2 l -1.2,-6.7 h -110.3 -110.3 l -56.5,91.7 c -31.1,50.5 -56.7,92.4 -56.9,93.2 -0.2,0.9 11.1,8.1 32.7,20.6 l 33,19.3 3.5,-5.7 c 2,-3.1 21.9,-36.1 44.4,-73.4 l 40.8,-67.7 h 68 68 l -2.5,4.2 c -1.4,2.4 -37.2,60.5 -79.6,129.3 l -77.1,125 v 98.7 98.8 h -112.5 -112.5 v 38 38 h 154.5 154.5 l 0.2,-99.1 0.3,-99.2 110.9,163.7 110.9,163.60001 h 49.3 c 27.2,0 49.4,-0.3 49.4,-0.6 0,-0.3 -54.2,-83.40001 -120.6,-184.60001 l -120.5,-184.1 58.2,-93.1 c 65.3,-104.2 64.2,-102.6 64.9,-102.6 0.3,0 5,10.7 10.4,23.7 5.3,13.1 17.9,43.5 27.8,67.5 l 18.1,43.8 h 83.2 83.2 l 0.7,126.7 c 0.3,69.8 0.9,167.1 1.2,216.3 l 0.7,89.50001 -38.9,37.7 -38.9,37.7 -45.5,0.1 h -45.5 l 30.8,-30.8 c 16.9,-16.9 30.7,-30.9 30.7,-31.2 0,-0.3 -22.8,-0.3 -50.7,-0.1 l -50.8,0.3 -29.5,30.8 -29.5,30.9 h -237 l -237,0.1 37.8,-37.8 37.7,-37.7 v -56.30001 -56.2 h -45.5 -45.5 v -56 -56 h 45.5 45.5 v -360 -359.999996 h 332 332 z"
     id="path2"
     style="fill:#ffffff;stroke:none;stroke-width:0.1" />
  <path
     d="m 730.3375,172.36969 c -25.1,3.2 -33.4,7.3 -52.6,26.2 -16.2,15.9 -21.3,24 -24.7,38.8 -4.8,20.7 -4.8,33.5 0,54 4.6,19.8 22.5,42.1 43.7,54.5 13.8,8 36.7,12.2 55.4,10 20.7,-2.3 32,-6.8 49.9,-19.8 11.4,-8.2 25,-29.2 28.6,-44.2 4.9,-20.4 4.9,-34.8 0,-55.4 -3.6,-15.2 -13.4,-29.9 -28.6,-43.1 -14.8,-12.8 -29.4,-19.1 -48.7,-21 -3.3,-0.3 -7.6,-0.7 -9.5,-0.9 -1.9,-0.2 -8,0.2 -13.5,0.9 z"
     id="path3"
     style="fill:#ffffff;stroke:none;stroke-width:0.1" />
</svg>
