<?xml version="1.0" encoding="UTF-8" standalone="no"?>
<svg
   version="1.0"
   width="1280.000000pt"
   height="1126.000000pt"
   viewBox="0 0 1280.000000 1126.000000"
   preserveAspectRatio="xMidYMid meet"
   id="svg3"
   sodipodi:docname="warning.svg"
   inkscape:version="1.4 (86a8ad7, 2024-10-11)"
   xmlns:inkscape="http://www.inkscape.org/namespaces/inkscape"
   xmlns:sodipodi="http://sodipodi.sourceforge.net/DTD/sodipodi-0.dtd"
   xmlns="http://www.w3.org/2000/svg"
   xmlns:svg="http://www.w3.org/2000/svg">
  <defs
     id="defs3" />
  <sodipodi:namedview
     id="namedview3"
     pagecolor="#ffffff"
     bordercolor="#666666"
     borderopacity="1.0"
     inkscape:showpageshadow="2"
     inkscape:pageopacity="0.0"
     inkscape:pagecheckerboard="0"
     inkscape:deskcolor="#d1d1d1"
     inkscape:document-units="pt"
     showgrid="false"
     inkscape:zoom="0.55605469"
     inkscape:cx="853.33333"
     inkscape:cy="750.82543"
     inkscape:window-width="1920"
     inkscape:window-height="1017"
     inkscape:window-x="1912"
     inkscape:window-y="-8"
     inkscape:window-maximized="1"
     inkscape:current-layer="svg3" />
  <metadata
     id="metadata1">
Created by potrace 1.15, written by Peter Selinger 2001-2017
</metadata>
  <path
     d="m 620.1,2 c -4.1,1 -11.3,3.7 -16,6.1 -7,3.5 -10.5,6.2 -18.7,14.4 -6.1,6 -12.4,13.4 -15.7,18.5 -8.5,13.2 -68.1,118.2 -296.2,521.5 -79.3,140.2 -171.4,303.2 -204.7,362 -33.3,58.9 -61.7,109.8 -63.1,113.1 -7.9,18.7 -7.2,39.4 1.9,55.9 1.5,2.8 6.4,8.6 10.8,13 9.1,9 17.7,13.9 30.6,17.5 l 7.6,2 587.9,-0.2 588,-0.3 8.1,-2.7 c 36.3,-12.4 49.4,-49.9 30.4,-87.8 -2.1,-4.3 -89.9,-158 -195.1,-341.7 C 970.7,509.7 845.1,290.4 796.8,206 748.4,121.6 705.9,48 702.2,42.5 690.4,24.8 675.4,11.4 660.3,5.2 647.8,0 633.1,-1.2 620.1,2 Z m 160.7,341 c 79.3,138.3 201.9,352.3 272.4,475.5 l 128.3,224 -271.2,0.3 c -149.2,0.1 -393.4,0.1 -542.7,0 L 96.1,1042.5 262.7,748 C 581.5,184.3 635.2,89.7 636.1,90.8 c 0.4,0.4 65.5,113.9 144.7,252.2 z"
     id="path1"
     style="fill:#ffffff;stroke:none;stroke-width:0.1" />
  <path
     d="m 629,338.6 c -1.4,0.3 -6.1,1.4 -10.4,2.5 -39,9.8 -70.6,47.4 -70.6,83.7 0,4.6 2.2,25.4 5,46.1 2.7,20.7 11.3,85.7 19,144.6 20.1,153.5 19.9,151.7 21.6,158.1 4.2,16.5 14.1,29.7 27.1,36.1 6.7,3.3 8.6,3.8 16.8,4.1 15.2,0.7 24.6,-3 34.8,-13.6 9.9,-10.5 14.4,-22.4 17.6,-46.4 1.1,-8.4 6.1,-46.2 11.1,-84.1 4.9,-37.8 13.1,-99.6 18,-137.5 5,-37.8 10,-75.6 11.1,-84 2.4,-18.2 2.5,-30.5 0.4,-38.7 -8.2,-32.3 -36,-59.9 -69.3,-68.6 -7.5,-2 -26.6,-3.3 -32.2,-2.3 z"
     id="path2"
     style="fill:#ffffff;stroke:none;stroke-width:0.1" />
  <path
     d="m 632.2,852.1 c -34.5,4.4 -59.4,37.1 -55.2,72.6 2,16.6 8.6,30.1 20.4,41 11.4,10.7 23.7,16 39.1,17 18.7,1.1 33.6,-4.7 47.5,-18.7 13.4,-13.4 19.2,-27.3 19.3,-46.5 0.1,-11.6 -1.3,-18.3 -5.8,-28 -12,-26.1 -37.9,-40.9 -65.3,-37.4 z"
     id="path3"
     style="fill:#ffffff;stroke:none;stroke-width:0.1" />
</svg>
