<?xml version="1.0" encoding="UTF-8" standalone="no"?>
<!-- Created with Inkscape (http://www.inkscape.org/) -->

<svg
   width="512mm"
   height="512mm"
   viewBox="0 0 512 512"
   version="1.1"
   id="svg1"
   xml:space="preserve"
   inkscape:version="1.4 (86a8ad7, 2024-10-11)"
   sodipodi:docname="icon.svg"
   inkscape:export-filename="icon.png"
   inkscape:export-xdpi="25.4"
   inkscape:export-ydpi="25.4"
   xmlns:inkscape="http://www.inkscape.org/namespaces/inkscape"
   xmlns:sodipodi="http://sodipodi.sourceforge.net/DTD/sodipodi-0.dtd"
   xmlns:xlink="http://www.w3.org/1999/xlink"
   xmlns="http://www.w3.org/2000/svg"
   xmlns:svg="http://www.w3.org/2000/svg"><sodipodi:namedview
     id="namedview1"
     pagecolor="#ffffff"
     bordercolor="#666666"
     borderopacity="1.0"
     inkscape:showpageshadow="2"
     inkscape:pageopacity="0.0"
     inkscape:pagecheckerboard="0"
     inkscape:deskcolor="#d1d1d1"
     inkscape:document-units="mm"
     inkscape:zoom="0.35355339"
     inkscape:cx="455.37677"
     inkscape:cy="931.96674"
     inkscape:window-width="1920"
     inkscape:window-height="1017"
     inkscape:window-x="1912"
     inkscape:window-y="-8"
     inkscape:window-maximized="1"
     inkscape:current-layer="layer1" /><defs
     id="defs1"><linearGradient
       id="linearGradient262173"
       inkscape:collect="always"><stop
         style="stop-color:#00004a;stop-opacity:1;"
         offset="0"
         id="stop262173" /><stop
         style="stop-color:#0000ff;stop-opacity:1;"
         offset="1"
         id="stop262174" /></linearGradient><linearGradient
       inkscape:collect="always"
       xlink:href="#linearGradient262173"
       id="linearGradient262174"
       x1="261.16129"
       y1="519.99982"
       x2="261.16129"
       y2="26.774193"
       gradientUnits="userSpaceOnUse" /></defs><g
     inkscape:label="Livello 1"
     inkscape:groupmode="layer"
     id="layer1"><rect
       style="fill:url(#linearGradient262174);stroke:none;stroke-width:1.5;stroke-linecap:square"
       id="rect262173"
       width="512"
       height="512"
       x="0"
       y="0"
       inkscape:export-filename="rect262173.png"
       inkscape:export-xdpi="25.4"
       inkscape:export-ydpi="25.4" /><g
       id="g262170"
       transform="matrix(3.427139,0,0,3.427139,-132.35625,-276.09084)"><path
         style="fill:#fefe00"
         d="m 100.88759,201.88349 -0.39215,-0.14384 -0.33546,-0.33546 -0.33545,-0.33545 v -18.69092 -18.69093 l 0.37798,-0.37797 0.37797,-0.37798 h 0.28348 0.28349 v -0.28348 -0.28348 l 0.37797,-0.37798 0.37798,-0.37797 h 4.13884 4.13884 l 0.37797,0.37797 0.37798,0.37798 v 0.37476 0.37477 l -0.48385,0.43788 -0.48386,0.43789 h -3.88521 -3.88522 l 0.0105,18.5726 0.0105,18.5726 -0.47004,0.44642 -0.47005,0.44643 z m 9.52027,-6.08913 v -0.20949 l 1.1345,-1.11342 1.13449,-1.11343 h 0.84988 0.84988 v -0.87234 -0.87235 l 1.00335,-0.97973 1.00334,-0.97974 h 0.18728 0.18728 v 2.79702 2.79702 l -0.37797,0.37798 -0.37798,0.37798 h -2.79702 -2.79703 z m 1.05834,-15.53321 1.16851,-1.19063 h 0.87095 0.87095 v -7.69181 -7.69182 l 0.37798,-0.37797 0.37797,-0.37798 h 0.28349 0.28348 v -0.28348 -0.28348 l 0.37798,-0.37798 0.37797,-0.37797 h 4.13884 4.13884 l 0.37798,0.37797 0.37797,0.37798 v 0.37476 0.37477 l -0.48385,0.43788 -0.48386,0.43789 h -3.88177 -3.88177 v 8.35327 8.35327 l -0.37797,0.37798 -0.37798,0.37797 h -2.85211 -2.85211 z m -7.6682,-20.18453 -0.39215,-0.14114 -0.33545,-0.33545 -0.33545,-0.33546 v -0.28348 -0.28348 h -0.41578 -0.41577 l -0.37798,-0.37798 -0.37797,-0.37797 v -0.41578 -0.41577 h -0.28349 -0.28348 l -0.37797,-0.37798 -0.37798,-0.37797 v -9.82738 -9.82738 l 0.37798,-0.37798 0.37797,-0.37798 h 0.28348 0.28349 v -0.41577 -0.41577 l 0.37797,-0.37798 0.37798,-0.37798 h 0.41577 0.41578 v -0.28348 -0.28348 l 0.37797,-0.37798 0.37798,-0.37797 h 0.28348 0.28348 v -0.41578 -0.41577 l 0.37798,-0.37798 0.37798,-0.37797 h 8.50446 8.50446 l 0.33014,0.33073 0.33014,0.33073 0.15143,0.58028 0.15143,0.58028 -0.471,0.42624 -0.471,0.42625 -8.36384,-0.0212 -8.36384,-0.0212 v 0.29036 0.29035 l -0.37798,0.37798 -0.37798,0.37798 h -0.28348 -0.28348 v 0.41577 0.41577 l -0.37798,0.37798 -0.37797,0.37798 h -0.41578 -0.41577 v 9.525 9.525 h 0.41577 0.41578 l 0.37797,0.37797 0.37798,0.37798 v 0.41577 0.41578 h 0.28348 0.28348 l 0.32664,0.33073 0.32663,0.33072 0.16452,0.43486 0.16453,0.43485 -0.5762,0.52366 -0.57621,0.52366 z m 24.22337,0.001 -0.51046,-0.11416 -0.34944,-0.34945 -0.34944,-0.34944 v -12.73779 -12.7378 l 0.37797,-0.37798 0.37798,-0.37797 h 0.41577 0.41578 v -0.41578 -0.41577 l 0.37797,-0.37798 0.37798,-0.37797 h 4.13884 4.13884 l 0.37798,0.37797 0.37797,0.37798 v 0.50706 0.50706 l -0.48385,0.43788 -0.48386,0.43788 h -3.88177 -3.88177 v 12.65899 12.65899 l -0.46302,0.39122 -0.46302,0.39122 z m -52.207776,-6.2737 -0.330729,-0.37564 v -6.90924 -6.90923 l 0.377976,-0.37797 0.377976,-0.37798 h 0.283482 0.283482 v -0.41577 -0.41578 l 0.377976,-0.37797 0.377977,-0.37798 h 4.781398 4.781399 v -1.73869 -1.73869 l 0.377976,-0.37798 0.377976,-0.37797 h 0.283482 0.283482 v -0.41578 -0.41577 l 0.377976,-0.37798 0.377977,-0.37797 h 4.138839 4.138839 l 0.377976,0.37797 0.377976,0.37798 v 0.36965 0.36966 l -0.612365,0.57528 -0.612365,0.57529 h -3.75326 -3.753259 v 2.53244 2.53244 l -0.377977,0.37798 -0.377976,0.37797 h -5.442857 -5.442857 v 6.70587 6.70587 l -0.483854,0.43788 -0.483854,0.43788 -0.376042,-0.0101 -0.376041,-0.0101 z m 35.681356,-3.54606 1.16187,-1.29599 0.8599,-0.0269 0.85989,-0.0269 v -2.56709 -2.5671 l 0.82572,-0.85192 0.82571,-0.85192 0.36491,0.14003 0.36491,0.14003 v 4.22392 4.22393 l -0.37797,0.37797 -0.37798,0.37798 h -2.83442 -2.83441 z m 26.16499,-10.68884 v -0.34318 l 1.00335,-0.97974 1.00334,-0.97974 h 4.7041 4.7041 l 0.37797,0.37798 0.37798,0.37797 v 0.36966 0.36965 l -0.61237,0.57529 -0.61236,0.57528 h -5.47305 -5.47306 z m -36.77235,-9.38761 -0.39215,-0.14384 -0.33546,-0.33546 -0.33545,-0.33545 v -4.13884 -4.13884 l 0.37798,-0.37798 0.37797,-0.37797 h 0.28348 0.28349 v -0.41578 -0.41577 l 0.37797,-0.37798 0.37798,-0.37797 h 1.87098 1.87098 v -6.10432 -6.10431 l 0.37798,-0.37798 0.37798,-0.37797 h 0.28348 0.28348 v -0.28349 -0.28348 l 0.37798,-0.37798 0.37797,-0.37797 h 5.59405 5.59405 l 0.37797,0.37797 0.37798,0.37798 v 0.54807 0.54806 h -0.52917 -0.52916 v 0.26459 0.26458 h -5.29167 -5.29167 v 6.89806 6.89807 l -0.37797,0.37798 -0.37798,0.37797 h -2.54433 -2.54434 l 0.0379,4.00151 0.0379,4.00151 -0.48905,0.46543 -0.48906,0.46544 z m 18.16956,-9.15117 -0.13857,-0.36112 0.93419,-0.96179 0.93419,-0.9618 h 1.9731 1.9731 l 0.37798,0.37797 0.37797,0.37798 v 0.50706 0.50706 l -0.48385,0.43788 -0.48386,0.43788 h -2.66283 -2.66284 z"
         id="path262173" /><path
         style="fill:#fe0000"
         d="m 104.38859,205.66225 -0.33073,-0.37564 v -0.27575 -0.27575 h -0.28348 -0.28348 l -0.37798,-0.37798 -0.37797,-0.37798 v -0.41577 -0.41577 h -0.41578 -0.41577 l -0.4125,-0.41251 -0.41251,-0.4125 0.74549,-0.77812 0.74549,-0.77812 h 0.23398 0.23398 l 0.37797,0.37797 0.37798,0.37798 v 0.28348 0.28348 h 0.28348 0.28348 l 0.37798,0.37798 0.37798,0.37798 v 0.41577 0.41577 h 8.20208 8.20208 v -0.41577 -0.41577 l 0.37798,-0.37798 0.37797,-0.37798 h 0.28349 0.28348 v -0.28348 -0.28348 l 0.37797,-0.37798 0.37798,-0.37797 h 0.41577 0.41578 v -18.34242 -18.34242 l 0.61236,-0.57529 0.61237,-0.57529 h 0.20028 0.20029 l 0.37797,0.37798 0.37798,0.37797 v 18.69093 18.69092 l -0.37798,0.37797 -0.37797,0.37798 h -0.28349 -0.28348 v 0.28348 0.28348 l -0.37797,0.37798 -0.37798,0.37798 h -0.41577 -0.41578 v 0.41577 0.41577 l -0.37797,0.37798 -0.37798,0.37798 h -0.28348 -0.28348 v 0.28348 0.28348 l -0.37798,0.37798 -0.37798,0.37797 -8.55171,-0.0101 -8.55171,-0.0101 z m 5.49011,-12.98458 v -2.79703 l 0.37797,-0.37797 0.37798,-0.37798 h 2.79702 2.79703 v 0.34318 0.34318 l -1.00335,0.97974 -1.00334,0.97973 h -0.84874 -0.84874 v 0.87235 0.87234 l -1.00334,0.97974 -1.00335,0.97974 h -0.31957 -0.31957 z m 0.33073,-11.67688 -0.33073,-0.12228 v -8.3985 -8.39849 l 0.61236,-0.57529 0.61237,-0.57529 h 0.33257 0.33258 l 0.37797,0.37798 0.37798,0.37797 v 7.77041 7.77042 l -0.99219,0.94767 -0.99219,0.94768 z m -21.431254,-19.78854 -0.330729,-0.37564 v -0.40804 -0.40804 h -0.283482 -0.283482 l -0.377976,-0.37798 -0.377976,-0.37798 v -1.73869 -1.73869 h -4.781399 -4.781398 l -0.377977,-0.37797 -0.377976,-0.37798 v -0.36965 -0.36966 l 0.612365,-0.57528 0.612366,-0.57529 h 5.359658 5.359658 l 0.377976,0.37798 0.377977,0.37797 v 2.53244 2.53244 h 3.836458 3.836458 v -12.5267 -12.5267 l 0.483854,-0.43788 0.483854,-0.43788 h 0.461086 0.461087 l 0.377976,0.37797 0.377976,0.37798 v 12.7378 12.73779 l -0.377976,0.37798 -0.377976,0.37798 H 98.652804 98.23703 v 0.41577 0.41577 l -0.377976,0.37798 -0.377976,0.37798 -4.186086,-0.0101 -4.186086,-0.0101 z m 15.610414,0 -0.33073,-0.37564 v -0.22625 -0.22625 l 0.74208,-0.71096 0.74209,-0.71096 h 7.98916 7.98917 v -0.28348 -0.28348 l 0.37798,-0.37798 0.37797,-0.37797 h 0.28349 0.28348 v -0.41578 -0.41577 l 0.37797,-0.37798 0.37798,-0.37797 h 0.41577 0.41578 v -9.525 -9.525 h -0.41578 -0.41577 l -0.37798,-0.37798 -0.37797,-0.37798 v -0.41577 -0.41577 h -0.28348 -0.28349 l -0.41795,-0.41796 -0.41795,-0.41795 0.81264,-0.81265 0.81265,-0.81265 0.41796,0.41796 0.41795,0.41795 v 0.28348 0.28348 h 0.41578 0.41577 l 0.37798,0.37798 0.37797,0.37798 v 0.41577 0.41577 h 0.28348 0.28349 l 0.37797,0.37798 0.37798,0.37798 v 9.82738 9.82738 l -0.37798,0.37797 -0.37797,0.37798 h -0.28349 -0.28348 v 0.41577 0.41578 l -0.37797,0.37797 -0.37798,0.37798 h -0.41577 -0.41578 v 0.28348 0.28348 l -0.37797,0.37798 -0.37798,0.37798 h -0.28348 -0.28348 v 0.41577 0.41577 l -0.37798,0.37798 -0.37798,0.37798 -8.55171,-0.0101 -8.55171,-0.0101 z m 24.34167,0 -0.33073,-0.37564 0.008,-0.2096 0.008,-0.20961 0.64041,-0.7276 0.6404,-0.72761 h 3.71686 3.71686 v -2.53244 -2.53244 l 0.37797,-0.37797 0.37798,-0.37798 h 5.44286 5.44285 v -6.70587 -6.70587 l 0.48386,-0.43788 0.48385,-0.43788 h 0.3288 0.32879 l 0.37798,0.37798 0.37797,0.37797 v 7.71072 7.71071 l -0.37797,0.37798 -0.37798,0.37797 h -5.44286 -5.44285 v 1.73869 1.73869 l -0.37798,0.37798 -0.37797,0.37798 h -0.28349 -0.28348 v 0.41577 0.41577 l -0.37797,0.37798 -0.37798,0.37798 -4.18609,-0.0101 -4.18608,-0.0101 z m -18.52083,-10.10937 -0.33073,-0.12228 v -4.23019 -4.23018 l 0.37797,-0.37798 0.37798,-0.37797 h 2.83141 2.8314 l -1.02657,1.1657 -1.02657,1.1657 -0.85989,0.0249 -0.8599,0.0249 v 2.59213 2.59214 l -0.99219,0.94768 -0.99219,0.94768 z m 26.92135,-14.31957 v -2.59971 l 0.61236,-0.57529 0.61237,-0.57528 h 0.20028 0.20029 l 0.37797,0.37797 0.37798,0.37798 v 1.81729 1.81728 l -1.00335,0.97974 -1.00334,0.97974 h -0.18728 -0.18728 z m -35.68232,-5.76537 -0.36045,-0.40746 0.74068,-0.7731 0.74068,-0.7731 h 10.9307 10.93071 v -3.79034 -3.79034 l 0.61236,-0.57528 0.61237,-0.57529 h 0.20028 0.20029 l 0.37797,0.37797 0.37798,0.37798 v 4.13884 4.13884 l -0.37798,0.37797 -0.37797,0.37798 h -0.28349 -0.28348 v 0.28348 0.28349 l -0.37797,0.37797 -0.37798,0.37798 -11.46213,-0.0101 -11.46213,-0.0101 z m 17.16149,-17.37911 v -7.32872 h 0.52916 0.52917 v -0.26458 -0.26458 h 0.28348 0.28348 l 0.37798,0.37797 0.37798,0.37798 -0.005,6.03817 -0.005,6.03817 -1.18531,1.17715 -1.1853,1.17716 z"
         id="path262172" /><path
         style="fill:#0000cb"
         d="m 105.1162,203.261 v -0.41577 l -0.37798,-0.37798 -0.37798,-0.37798 h -0.28348 -0.28348 v -0.28348 -0.28348 l -0.37798,-0.37798 -0.37797,-0.37797 h -0.41578 -0.41577 v -18.38854 -18.38854 h 3.83646 3.83646 v 8.35327 8.35327 l 0.37797,0.37798 0.37798,0.37797 h 2.68363 2.68363 l 0.37798,-0.37797 0.37797,-0.37798 v -8.35327 -8.35327 h 3.83646 3.83646 v 18.38854 18.38854 h -0.41578 -0.41577 l -0.37798,0.37797 -0.37797,0.37798 v 0.28348 0.28348 h -0.28348 -0.28349 l -0.37797,0.37798 -0.37798,0.37798 v 0.41577 0.41577 h -8.20208 -8.20208 z m 11.26369,-7.63512 0.37797,-0.37798 v -2.68363 -2.68363 l -0.37797,-0.37797 -0.37798,-0.37798 h -2.68363 -2.68363 l -0.37798,0.37798 -0.37797,0.37797 v 2.6759 2.6759 l 0.33073,0.37565 0.33072,0.37564 2.73088,0.0101 2.73088,0.0101 z M 89.505781,156.42975 v -2.53244 l -0.377977,-0.37797 -0.377976,-0.37798 h -5.442857 -5.442857 v -6.61458 -6.61459 h 5.442857 5.442857 l 0.377976,-0.37797 0.377977,-0.37798 v -2.53244 -2.53244 h 3.836458 3.836458 v 12.43542 12.43541 h -3.836458 -3.836458 z m 15.610419,2.24896 v -0.28348 l -0.37798,-0.37798 -0.37798,-0.37797 h -0.28348 -0.28348 v -0.41578 -0.41577 l -0.37798,-0.37798 -0.37797,-0.37797 h -0.41578 -0.41577 v -9.525 -9.525 h 0.41577 0.41578 l 0.37797,-0.37798 0.37798,-0.37798 v -0.41577 -0.41577 h 0.28348 0.28348 l 0.37798,-0.37798 0.37798,-0.37798 v -0.28348 -0.28348 h 8.20208 8.20208 v 0.28348 0.28348 l 0.37798,0.37798 0.37797,0.37798 h 0.28349 0.28348 v 0.41577 0.41577 l 0.37797,0.37798 0.37798,0.37798 h 0.41577 0.41578 v 9.525 9.525 h -0.41578 -0.41577 l -0.37798,0.37797 -0.37797,0.37798 v 0.41577 0.41578 h -0.28348 -0.28349 l -0.37797,0.37797 -0.37798,0.37798 v 0.28348 0.28348 h -8.20208 -8.20208 z m 11.26369,-7.50283 0.37797,-0.37797 v -4.13884 -4.13884 l -0.37797,-0.37798 -0.37798,-0.37797 h -2.68363 -2.68363 l -0.37798,0.37797 -0.37797,0.37798 v 4.13111 4.1311 l 0.33073,0.37565 0.33072,0.37564 2.73088,0.0101 2.73088,0.0101 z m 13.07797,-4.6491 v -12.43542 h 3.83646 3.83646 v 2.53244 2.53244 l 0.37797,0.37798 0.37798,0.37797 h 5.44286 5.44285 v 6.61459 6.61458 h -5.44285 -5.44286 l -0.37798,0.37798 -0.37797,0.37797 v 2.53244 2.53244 h -3.83646 -3.83646 z m -27.25208,-21.29896 v -3.83646 h 2.53244 2.53244 l 0.37798,-0.37797 0.37797,-0.37798 v -6.89807 -6.89806 h 5.29167 5.29167 v 6.89806 6.89807 l 0.37797,0.37798 0.37798,0.37797 h 2.53244 2.53244 v 3.83646 3.83646 h -11.1125 -11.1125 z"
         id="path262171" /></g></g></svg>
